<?xml version="1.0" encoding="UTF-8" standalone="no"?>
<!-- Created with Inkscape (http://www.inkscape.org/) -->

<svg
   xmlns:dc="http://purl.org/dc/elements/1.1/"
   xmlns:cc="http://creativecommons.org/ns#"
   xmlns:rdf="http://www.w3.org/1999/02/22-rdf-syntax-ns#"
   xmlns:svg="http://www.w3.org/2000/svg"
   xmlns="http://www.w3.org/2000/svg"
   xmlns:sodipodi="http://sodipodi.sourceforge.net/DTD/sodipodi-0.dtd"
   xmlns:inkscape="http://www.inkscape.org/namespaces/inkscape"
   id="svg2"
   height="150.24794"
   width="180"
   version="1.1"
   viewBox="298 98 94.957816 78.253467"
   inkscape:version="0.91 r13725"
   sodipodi:docname="2b-expr.svg">
  <defs
     id="defs35" />
  <sodipodi:namedview
     pagecolor="#ffffff"
     bordercolor="#666666"
     borderopacity="1"
     objecttolerance="10"
     gridtolerance="10"
     guidetolerance="10"
     inkscape:pageopacity="0"
     inkscape:pageshadow="2"
     inkscape:window-width="837"
     inkscape:window-height="480"
     id="namedview33"
     showgrid="false"
     fit-margin-top="0"
     fit-margin-left="0"
     fit-margin-right="0"
     fit-margin-bottom="0"
     inkscape:zoom="5.6568542"
     inkscape:cx="104.47765"
     inkscape:cy="190.595"
     inkscape:window-x="182"
     inkscape:window-y="75"
     inkscape:window-maximized="0"
     inkscape:current-layer="svg2" />
  <metadata
     id="metadata66">
    <rdf:RDF>
      <cc:Work
         rdf:about="">
        <dc:format>image/svg+xml</dc:format>
        <dc:type
           rdf:resource="http://purl.org/dc/dcmitype/StillImage" />
        <dc:title></dc:title>
      </cc:Work>
    </rdf:RDF>
  </metadata>
  <g
     id="g4"
     transform="matrix(0.39238768,0,0,0.39238768,180.67608,58.649195)">
    <path
       id="rect6"
       d="m 380,100 40,0 0,40 -40,0 z"
       inkscape:connector-curvature="0"
       style="fill:#ffffff" />
    <path
       id="rect8"
       d="m 380,100 40,0 0,40 -40,0 z"
       inkscape:connector-curvature="0"
       style="fill:none;stroke:#000000;stroke-width:2" />
    <g
       id="text10">
      <path
         id="path3014"
         d="m 404.47,113.83 -3.562,1.9248 3.562,1.9348 -0.57547,0.97234 -3.3338,-2.0141 0,3.7406 -1.1311,0 0,-3.7406 -3.3338,2.0141 -0.57547,-0.97234 3.562,-1.9348 -3.562,-1.9248 0.57547,-0.98227 3.3338,2.0141 0,-3.7405 1.1311,0 0,3.7405 3.3338,-2.0141 0.57547,0.98227"
         inkscape:connector-curvature="0" />
    </g>
  </g>
  <g
     id="g14"
     transform="matrix(0.39238768,0,0,0.39238768,180.67608,58.649195)">
    <path
       id="rect16"
       d="m 300,180 40,0 0,40 -40,0 z"
       inkscape:connector-curvature="0"
       style="fill:#a3bbcc" />
    <path
       id="rect18"
       d="m 300,180 40,0 0,40 -40,0 z"
       inkscape:connector-curvature="0"
       style="fill:none;stroke:#000000;stroke-width:2" />
    <g
       id="text20">
      <path
         id="path3019"
         d="m 321.21,193.13 -5.0602,7.9077 5.0602,0 0,-7.9077 m -0.52586,-1.7462 2.5202,0 0,9.654 2.1134,0 0,1.6669 -2.1134,0 0,3.4925 -1.9943,0 0,-3.4925 -6.6873,0 0,-1.9348 6.1615,-9.3861"
         inkscape:connector-curvature="0" />
    </g>
  </g>
  <g
     id="g24"
     transform="matrix(0.39238768,0,0,0.39238768,180.67608,58.649195)">
    <path
       id="rect26"
       d="m 460,180 40,0 0,40 -40,0 z"
       inkscape:connector-curvature="0"
       style="fill:#ffffff" />
    <path
       id="rect28"
       d="m 460,180 40,0 0,40 -40,0 z"
       inkscape:connector-curvature="0"
       style="fill:none;stroke:#000000;stroke-width:2" />
    <g
       id="text30">
      <path
         id="path3024"
         d="m 480.83,193.46 0,5.5265 5.5265,0 0,1.6867 -5.5265,0 0,5.5265 -1.6669,0 0,-5.5265 -5.5265,0 0,-1.6867 5.5265,0 0,-5.5265 1.6669,0"
         inkscape:connector-curvature="0" />
    </g>
  </g>
  <g
     id="g34"
     transform="matrix(0.39238768,0,0,0.39238768,180.67608,58.649195)">
    <path
       id="rect36"
       d="m 420,260 40,0 0,40 -40,0 z"
       inkscape:connector-curvature="0"
       style="fill:#a3bbcc" />
    <path
       id="rect38"
       d="m 420,260 40,0 0,40 -40,0 z"
       inkscape:connector-curvature="0"
       style="fill:none;stroke:#000000;stroke-width:2" />
    <g
       id="text40">
      <path
         id="path3029"
         d="m 435.72,271.39 7.868,0 0,1.6867 -6.0325,0 0,3.6314 c 0.29104,-0.0992 0.58208,-0.17197 0.87312,-0.21828 0.29104,-0.0529 0.58208,-0.0794 0.87313,-0.0794 1.6536,1e-5 2.9633,0.45311 3.9291,1.3593 0.96572,0.9062 1.4486,2.1332 1.4486,3.681 -10e-6,1.5941 -0.4961,2.8344 -1.4883,3.7207 -0.99219,0.87974 -2.3912,1.3196 -4.197,1.3196 -0.62178,0 -1.2568,-0.0529 -1.905,-0.15875 -0.64162,-0.10584 -1.3064,-0.26459 -1.9943,-0.47625 l 0,-2.0141 c 0.59531,0.32411 1.2105,0.56554 1.8455,0.72429 0.635,0.15875 1.3064,0.23813 2.0141,0.23813 1.1443,0 2.0505,-0.30096 2.7186,-0.90289 0.66806,-0.60193 1.0021,-1.4188 1.0021,-2.4507 -10e-6,-1.0319 -0.33405,-1.8488 -1.0021,-2.4507 -0.66808,-0.60192 -1.5743,-0.90288 -2.7186,-0.90289 -0.53578,1e-5 -1.0716,0.0595 -1.6073,0.17859 -0.52917,0.11907 -1.0716,0.30428 -1.6272,0.55563 l 0,-7.4414"
         inkscape:connector-curvature="0" />
    </g>
  </g>
  <path
     id="line44"
     d="m 337.63114,113.58532 -31.39101,15.6955"
     inkscape:connector-curvature="0"
     style="fill:none;stroke:#000000;stroke-width:0.78477538" />
  <path
     id="line46"
     d="m 369.02215,129.28082 -31.39101,-15.6955"
     inkscape:connector-curvature="0"
     style="fill:none;stroke:#000000;stroke-width:0.78477538" />
  <path
     id="line48"
     d="m 353.32665,160.67185 15.6955,-15.69552"
     inkscape:connector-curvature="0"
     style="fill:none;stroke:#000000;stroke-width:0.78477538" />
  <g
     id="g50"
     transform="matrix(0.39238768,0,0,0.39238768,180.67608,58.649195)">
    <path
       id="rect52"
       d="m 500,260 40,0 0,40 -40,0 z"
       inkscape:connector-curvature="0"
       style="fill:#a3bbcc" />
    <path
       id="rect54"
       d="m 500,260 40,0 0,40 -40,0 z"
       inkscape:connector-curvature="0"
       style="fill:none;stroke:#000000;stroke-width:2" />
    <g
       id="text56">
      <path
         id="path3037"
         d="m 525.14,275.09 -4.0184,5.4074 4.2267,5.7051 -2.153,0 -3.2345,-4.3656 -3.2345,4.3656 -2.153,0 4.316,-5.8142 -3.9489,-5.2983 2.153,0 2.9468,3.9588 2.9468,-3.9588 2.153,0"
         inkscape:connector-curvature="0" />
    </g>
  </g>
  <path
     id="line60"
     d="M 384.71766,160.67185 369.02215,144.97633"
     inkscape:connector-curvature="0"
     style="fill:none;stroke:#000000;stroke-width:0.78477538" />
</svg>
