<?xml version="1.0" encoding="UTF-8"?>
<svg id="svg73" width="25.948cm" height="11.435cm" version="1.1" viewBox="298 -62 502 214.41" xmlns="http://www.w3.org/2000/svg" xmlns:cc="http://creativecommons.org/ns#" xmlns:dc="http://purl.org/dc/elements/1.1/" xmlns:rdf="http://www.w3.org/1999/02/22-rdf-syntax-ns#">
 <metadata id="metadata77">
  <rdf:RDF>
   <cc:Work rdf:about="">
    <dc:format>image/svg+xml</dc:format>
    <dc:type rdf:resource="http://purl.org/dc/dcmitype/StillImage"/>
   </cc:Work>
  </rdf:RDF>
 </metadata>
 <g id="Háttér" transform="translate(-1 -4.4085)">
  <path id="rect4" d="m300 100h500v40h-500z" fill="#bfbfbf" stroke="#000" stroke-width="2"/>
  <path id="rect6" d="m360 100h60v40h-60z" fill="#fff" stroke="#000" stroke-width="2"/>
  <path id="rect8" d="m500 100h60v40h-60z" fill="#fff" stroke="#000" stroke-width="2"/>
  <g id="g16">
   <path id="rect10" d="m640 100h140v40h-140z" fill="#fff" stroke="#000" stroke-width="2"/>
   <g id="text14" aria-label="Hello world!\0">
    <path id="path46" d="m656.39 113.27h1.5588v4.7228h5.6643v-4.7228h1.5588v11.521h-1.5588v-5.4868h-5.6643v5.4868h-1.5588z" style=""/>
    <path id="path48" d="m675.61 120.12v0.69453h-6.5286q0.0926 1.4662 0.87974 2.2379 0.79485 0.76398 2.2071 0.76398 0.818 0 1.582-0.20064 0.7717-0.20064 1.528-0.60193v1.3428q-0.76398 0.32411-1.5666 0.49389-0.80256 0.16977-1.6283 0.16977-2.0682 0-3.2797-1.2038-1.2038-1.2038-1.2038-3.2566 0-2.1222 1.1421-3.3646 1.1498-1.2502 3.0945-1.2502 1.744 0 2.755 1.1267 1.0186 1.119 1.0186 3.0482zm-1.4199-0.41672q-0.0154-1.1653-0.65595-1.8598-0.63279-0.69453-1.6823-0.69453-1.1884 0-1.9061 0.67138-0.70996 0.67138-0.818 1.8907z" style=""/>
    <path id="path50" d="m677.94 112.78h1.4199v12.008h-1.4199z" style=""/>
    <path id="path52" d="m682.33 112.78h1.4199v12.008h-1.4199z" style=""/>
    <path id="path54" d="m690.07 117.14q-1.1421 0-1.8058 0.89517-0.66366 0.88746-0.66366 2.4386 0 1.5511 0.65594 2.4463 0.66367 0.88745 1.8135 0.88745 1.1344 0 1.7981-0.89517t0.66366-2.4386q0-1.5357-0.66366-2.4308-0.66366-0.90289-1.7981-0.90289zm0-1.2038q1.8521 0 2.9093 1.2038 1.0572 1.2038 1.0572 3.3337 0 2.1222-1.0572 3.3337-1.0572 1.2038-2.9093 1.2038-1.8598 0-2.917-1.2038-1.0495-1.2116-1.0495-3.3337 0-2.1299 1.0495-3.3337 1.0572-1.2038 2.917-1.2038z" style=""/>
    <path id="path56" d="m700.59 116.15h1.4199l1.7749 6.7446 1.7672-6.7446h1.6746l1.7749 6.7446 1.7672-6.7446h1.4199l-2.2611 8.643h-1.6746l-1.8598-7.0842-1.8675 7.0842h-1.6746z" style=""/>
    <path id="path58" d="m717.69 117.14q-1.1421 0-1.8058 0.89517-0.66366 0.88746-0.66366 2.4386 0 1.5511 0.65594 2.4463 0.66366 0.88745 1.8135 0.88745 1.1344 0 1.7981-0.89517t0.66366-2.4386q0-1.5357-0.66366-2.4308-0.66366-0.90289-1.7981-0.90289zm0-1.2038q1.8521 0 2.9093 1.2038t1.0572 3.3337q0 2.1222-1.0572 3.3337-1.0572 1.2038-2.9093 1.2038-1.8598 0-2.917-1.2038-1.0495-1.2116-1.0495-3.3337 0-2.1299 1.0495-3.3337 1.0572-1.2038 2.917-1.2038z" style=""/>
    <path id="path60" d="m729.02 117.48q-0.23923-0.1389-0.52476-0.20064-0.27781-0.0695-0.61736-0.0695-1.2038 0-1.8521 0.78713-0.64051 0.77942-0.64051 2.2456v4.553h-1.4276v-8.643h1.4276v1.3428q0.44758-0.78714 1.1653-1.1653 0.71768-0.38585 1.744-0.38585 0.14662 0 0.32412 0.0231 0.17749 0.0154 0.39356 0.054z" style=""/>
    <path id="path63" d="m730.51 112.78h1.4199v12.008h-1.4199z" style=""/>
    <path id="path65" d="m740.59 117.46v-4.6765h1.4199v12.008h-1.4199v-1.2964q-0.44758 0.77169-1.1344 1.1498-0.6791 0.37041-1.636 0.37041-1.5666 0-2.5543-1.2502-0.98006-1.2502-0.98006-3.2874 0-2.0373 0.98006-3.2874 0.98777-1.2502 2.5543-1.2502 0.95691 0 1.636 0.37813 0.68681 0.37042 1.1344 1.1421zm-4.8386 3.0173q0 1.5666 0.64051 2.4617 0.64823 0.88746 1.7749 0.88746t1.7749-0.88746q0.64822-0.89517 0.64822-2.4617t-0.64822-2.454q-0.64823-0.89517-1.7749-0.89517t-1.7749 0.89517q-0.64051 0.88745-0.64051 2.454z" style=""/>
    <path id="path67" d="m745.83 122.83h1.5666v1.9601h-1.5666zm0-9.5614h1.5666v5.0546l-0.15434 2.755h-1.2502l-0.16206-2.755z" style=""/>
    <path id="path69" d="m751.09 113.27 4.0128 12.988h-1.3119l-4.0128-12.988z" style=""/>
    <path id="path71" d="m760.13 114.3q-1.2038 0-1.8135 1.1884-0.60193 1.1807-0.60193 3.5575 0 2.3691 0.60193 3.5575 0.60964 1.1807 1.8135 1.1807 1.2116 0 1.8135-1.1807 0.60964-1.1884 0.60964-3.5575 0-2.3768-0.60964-3.5575-0.60192-1.1884-1.8135-1.1884zm0-1.2347q1.937 0 2.9556 1.5357 1.0264 1.528 1.0264 4.445 0 2.9093-1.0264 4.445-1.0186 1.528-2.9556 1.528-1.937 0-2.9633-1.528-1.0186-1.5357-1.0186-4.445 0-2.917 1.0186-4.445 1.0264-1.5357 2.9633-1.5357z" style=""/>
   </g>
  </g>
  <g id="text20" aria-label="c">
   <path id="path74" d="m393.36 151.69v1.3273q-0.60193-0.33183-1.2116-0.49389-0.60192-0.16977-1.2193-0.16977-1.3814 0-2.1453 0.87974-0.76398 0.87202-0.76398 2.454t0.76398 2.4617q0.76398 0.87202 2.1453 0.87202 0.61736 0 1.2193-0.16205 0.60964-0.16978 1.2116-0.50161v1.3119q-0.59421 0.27781-1.2347 0.41672-0.63279 0.1389-1.3505 0.1389-1.9524 0-3.1022-1.227-1.1498-1.227-1.1498-3.3106 0-2.1144 1.1576-3.326 1.1653-1.2116 3.1871-1.2116 0.65594 0 1.281 0.13891 0.62508 0.13118 1.2116 0.40128z" style=""/>
  </g>
  <g id="text24" aria-label="a+b">
   <path id="path77" d="m518.94 155.66q-1.7209 0-2.3846 0.39357t-0.66366 1.3428q0 0.75626 0.49389 1.2038 0.5016 0.43987 1.3582 0.43987 1.1807 0 1.8907-0.83344 0.71768-0.84115 0.71768-2.2302v-0.3164zm2.8321-0.58649v4.9312h-1.4199v-1.3119q-0.48617 0.78713-1.2116 1.1653-0.72539 0.37041-1.7749 0.37041-1.3273 0-2.1144-0.74083-0.77942-0.74855-0.77942-1.9987 0-1.4585 0.97234-2.1993 0.98006-0.74083 2.917-0.74083h1.991v-0.13891q0-0.98006-0.64823-1.5125-0.64051-0.54019-1.8058-0.54019-0.74083 0-1.4431 0.17749t-1.3505 0.53247v-1.3119q0.77941-0.30097 1.5125-0.44759 0.73311-0.15434 1.4276-0.15434 1.8752 0 2.8013 0.97234t0.92604 2.9479z" style=""/>
   <path id="path79" d="m530.47 150.09v4.2984h4.2984v1.3119h-4.2984v4.2984h-1.2965v-4.2984h-4.2984v-1.3119h4.2984v-4.2984z" style=""/>
   <path id="path81" d="m544.14 155.69q0-1.5666-0.64823-2.454-0.64051-0.89517-1.7672-0.89517t-1.7749 0.89517q-0.64051 0.88745-0.64051 2.454t0.64051 2.4617q0.64823 0.88746 1.7749 0.88746t1.7672-0.88746q0.64823-0.89517 0.64823-2.4617zm-4.8308-3.0173q0.44759-0.7717 1.1267-1.1421 0.68682-0.37813 1.636-0.37813 1.5743 0 2.5543 1.2502 0.98777 1.2502 0.98777 3.2874 0 2.0373-0.98777 3.2874-0.98006 1.2502-2.5543 1.2502-0.94919 0-1.636-0.37041-0.67909-0.37814-1.1267-1.1498v1.2964h-1.4276v-12.008h1.4276z" style=""/>
  </g>
  <g id="g32" stroke="#000" stroke-width="2">
   <path id="polyline26" d="m390 126v-56h270v20.264" fill="none"/>
   <path id="path28" d="m390 126c-2.5 0-5-2.5-5-5s2.5-5 5-5 5 2.5 5 5-2.5 5-5 5z" fill-rule="evenodd"/>
   <path id="polygon30" d="m660 90.264 5-2.5-5 10-5-10z" fill-rule="evenodd"/>
  </g>
  <path id="line34" d="m524 114 14 14" fill="none" stroke="#000" stroke-width="2"/>
  <path id="line36" d="m524 128 14-14" fill="none" stroke="#000" stroke-width="2"/>
  <path id="rect38" d="m300-30h500v40h-500z" fill="#bfbfbf" stroke="#000" stroke-width="2"/>
  <path id="rect40" d="m360-30h60v40h-60z" fill="#fff" stroke="#000" stroke-width="2"/>
  <path id="rect42" d="m500-30h60v40h-60z" fill="#fff" stroke="#000" stroke-width="2"/>
  <g id="g50">
   <path id="rect44" d="m640-30h140v40h-140z" fill="#fff" stroke="#000" stroke-width="2"/>
   <g id="text48" aria-label="Hello world!\0">
    <path id="path92" d="m656.39-16.729h1.5588v4.7228h5.6643v-4.7228h1.5588v11.521h-1.5588v-5.4868h-5.6643v5.4868h-1.5588z" style=""/>
    <path id="path94" d="m675.61-9.8843v0.69453h-6.5286q0.0926 1.4662 0.87974 2.2379 0.79485 0.76398 2.2071 0.76398 0.818 0 1.582-0.20064 0.7717-0.20064 1.528-0.60193v1.3428q-0.76398 0.32411-1.5666 0.49389-0.80256 0.16977-1.6283 0.16977-2.0682 0-3.2797-1.2039-1.2038-1.2039-1.2038-3.2566 0-2.1222 1.1421-3.3646 1.1498-1.2502 3.0945-1.2502 1.744 0 2.755 1.1267 1.0186 1.119 1.0186 3.0482zm-1.4199-0.41672q-0.0154-1.1653-0.65595-1.8598-0.63279-0.69453-1.6823-0.69453-1.1884 0-1.9061 0.67138-0.70996 0.67138-0.818 1.8907z" style=""/>
    <path id="path96" d="m677.94-17.215h1.4199v12.008h-1.4199z" style=""/>
    <path id="path98" d="m682.33-17.215h1.4199v12.008h-1.4199z" style=""/>
    <path id="path100" d="m690.07-12.855q-1.1421 0-1.8058 0.89517-0.66366 0.88745-0.66366 2.4386 0 1.5511 0.65594 2.4463 0.66367 0.88745 1.8135 0.88745 1.1344 0 1.7981-0.89517t0.66366-2.4386q0-1.5357-0.66366-2.4309-0.66366-0.90289-1.7981-0.90289zm0-1.2039q1.8521 0 2.9093 1.2039 1.0572 1.2038 1.0572 3.3337 0 2.1222-1.0572 3.3337-1.0572 1.2039-2.9093 1.2039-1.8598 0-2.917-1.2039-1.0495-1.2116-1.0495-3.3337 0-2.1299 1.0495-3.3337 1.0572-1.2039 2.917-1.2039z" style=""/>
    <path id="path102" d="m700.59-13.851h1.4199l1.7749 6.7447 1.7672-6.7447h1.6746l1.7749 6.7447 1.7672-6.7447h1.4199l-2.2611 8.643h-1.6746l-1.8598-7.0842-1.8675 7.0842h-1.6746z" style=""/>
    <path id="path104" d="m717.69-12.855q-1.1421 0-1.8058 0.89517-0.66366 0.88745-0.66366 2.4386 0 1.5511 0.65594 2.4463 0.66366 0.88745 1.8135 0.88745 1.1344 0 1.7981-0.89517t0.66366-2.4386q0-1.5357-0.66366-2.4309-0.66366-0.90289-1.7981-0.90289zm0-1.2039q1.8521 0 2.9093 1.2039 1.0572 1.2038 1.0572 3.3337 0 2.1222-1.0572 3.3337-1.0572 1.2039-2.9093 1.2039-1.8598 0-2.917-1.2039-1.0495-1.2116-1.0495-3.3337 0-2.1299 1.0495-3.3337 1.0572-1.2039 2.917-1.2039z" style=""/>
    <path id="path106" d="m729.02-12.523q-0.23923-0.13891-0.52476-0.20064-0.27781-0.06945-0.61736-0.06945-1.2038 0-1.8521 0.78713-0.64051 0.77942-0.64051 2.2456v4.553h-1.4276v-8.643h1.4276v1.3428q0.44758-0.78713 1.1653-1.1653 0.71768-0.38585 1.744-0.38585 0.14662 0 0.32412 0.02315 0.17749 0.01543 0.39356 0.05402z" style=""/>
    <path id="path108" d="m730.51-17.215h1.4199v12.008h-1.4199z" style=""/>
    <path id="path110" d="m740.59-12.539v-4.6765h1.4199v12.008h-1.4199v-1.2965q-0.44758 0.7717-1.1344 1.1498-0.6791 0.37042-1.636 0.37042-1.5666 0-2.5543-1.2502-0.98006-1.2502-0.98006-3.2874 0-2.0373 0.98006-3.2874 0.98777-1.2502 2.5543-1.2502 0.95691 0 1.636 0.37813 0.68681 0.37042 1.1344 1.1421zm-4.8386 3.0173q0 1.5665 0.64051 2.4617 0.64823 0.88745 1.7749 0.88745t1.7749-0.88745q0.64822-0.89517 0.64822-2.4617t-0.64822-2.454q-0.64823-0.89517-1.7749-0.89517t-1.7749 0.89517q-0.64051 0.88745-0.64051 2.454z" style=""/>
    <path id="path112" d="m745.83-7.1679h1.5666v1.9601h-1.5666zm0-9.5614h1.5666v5.0546l-0.15434 2.755h-1.2502l-0.16206-2.755z" style=""/>
    <path id="path114" d="m751.09-16.729 4.0128 12.988h-1.3119l-4.0128-12.988z" style=""/>
    <path id="path116" d="m760.13-15.703q-1.2038 0-1.8135 1.1884-0.60193 1.1807-0.60193 3.5575 0 2.3691 0.60193 3.5575 0.60964 1.1807 1.8135 1.1807 1.2116 0 1.8135-1.1807 0.60964-1.1884 0.60964-3.5575 0-2.3768-0.60964-3.5575-0.60192-1.1884-1.8135-1.1884zm0-1.2347q1.937 0 2.9556 1.5357 1.0264 1.528 1.0264 4.445 0 2.9093-1.0264 4.445-1.0186 1.528-2.9556 1.528-1.937 0-2.9633-1.528-1.0186-1.5357-1.0186-4.445 0-2.917 1.0186-4.445 1.0264-1.5357 2.9633-1.5357z" style=""/>
   </g>
  </g>
  <g id="text54" aria-label="c">
   <path id="path119" d="m393.36 21.689v1.3273q-0.60193-0.33183-1.2116-0.49389-0.60192-0.16977-1.2193-0.16977-1.3814 0-2.1453 0.87974-0.76398 0.87202-0.76398 2.454 0 1.582 0.76398 2.4617 0.76398 0.87202 2.1453 0.87202 0.61736 0 1.2193-0.16206 0.60964-0.16977 1.2116-0.5016v1.3119q-0.59421 0.27781-1.2347 0.41672-0.63279 0.13891-1.3505 0.13891-1.9524 0-3.1022-1.227-1.1498-1.227-1.1498-3.3106 0-2.1145 1.1576-3.326 1.1653-1.2116 3.1871-1.2116 0.65594 0 1.281 0.13891 0.62508 0.13119 1.2116 0.40128z" style=""/>
  </g>
  <g id="text58" aria-label="a+b">
   <path id="path122" d="m518.94 25.655q-1.7209 0-2.3846 0.39357t-0.66366 1.3428q0 0.75626 0.49389 1.2038 0.5016 0.43987 1.3582 0.43987 1.1807 0 1.8907-0.83344 0.71768-0.84115 0.71768-2.2302v-0.3164zm2.8321-0.58649v4.9312h-1.4199v-1.3119q-0.48617 0.78713-1.2116 1.1653-0.72539 0.37042-1.7749 0.37042-1.3273 0-2.1144-0.74083-0.77942-0.74855-0.77942-1.9987 0-1.4585 0.97234-2.1993 0.98006-0.74083 2.917-0.74083h1.991v-0.1389q0-0.98006-0.64823-1.5125-0.64051-0.54019-1.8058-0.54019-0.74083 0-1.4431 0.17749-0.70225 0.17749-1.3505 0.53247v-1.3119q0.77941-0.30096 1.5125-0.44758 0.73311-0.15434 1.4276-0.15434 1.8752 0 2.8013 0.97234t0.92604 2.9479z" style=""/>
   <path id="path124" d="m530.47 20.091v4.2984h4.2984v1.3119h-4.2984v4.2984h-1.2965v-4.2984h-4.2984v-1.3119h4.2984v-4.2984z" style=""/>
   <path id="path126" d="m544.14 25.686q0-1.5665-0.64823-2.454-0.64051-0.89517-1.7672-0.89517t-1.7749 0.89517q-0.64051 0.88745-0.64051 2.454 0 1.5666 0.64051 2.4617 0.64823 0.88745 1.7749 0.88745t1.7672-0.88745q0.64823-0.89517 0.64823-2.4617zm-4.8308-3.0173q0.44759-0.7717 1.1267-1.1421 0.68682-0.37813 1.636-0.37813 1.5743 0 2.5543 1.2502 0.98777 1.2502 0.98777 3.2874t-0.98777 3.2874q-0.98006 1.2502-2.5543 1.2502-0.94919 0-1.636-0.37042-0.67909-0.37813-1.1267-1.1498v1.2965h-1.4276v-12.008h1.4276z" style=""/>
  </g>
  <g id="g66" stroke="#000" stroke-width="2">
   <path id="polyline60" d="m530-4v-56h130v20.264" fill="none"/>
   <path id="path62" d="m530-4c-2.5 0-5-2.5-5-5s2.5-5 5-5 5 2.5 5 5-2.5 5-5 5z" fill-rule="evenodd"/>
   <path id="polygon64" d="m660-39.736 5-2.5-5 10-5-10z" fill-rule="evenodd"/>
  </g>
  <g id="text70" aria-label="?">
   <path id="path131" d="m388.82-6.4888h1.5666v1.9601h-1.5666zm1.5202-1.1344h-1.474v-1.1884q0-0.77942 0.21608-1.281 0.21607-0.5016 0.9106-1.1653l0.69453-0.68681q0.43987-0.409 0.63279-0.7717 0.20065-0.3627 0.20065-0.74083 0-0.68681-0.50933-1.1112-0.5016-0.42443-1.335-0.42443-0.60964 0-1.3042 0.27009-0.68681 0.2701-1.4354 0.78713v-1.4508q0.7254-0.43987 1.4662-0.65594 0.74855-0.21608 1.5434-0.21608 1.4199 0 2.2765 0.74855 0.86431 0.74855 0.86431 1.9756 0 0.58649-0.27782 1.119-0.27781 0.52476-0.97234 1.1884l-0.67909 0.66366q-0.3627 0.3627-0.51704 0.57106-0.14662 0.20064-0.20836 0.39357-0.0463 0.16206-0.0695 0.39357-0.0231 0.23151-0.0231 0.63279z" style=""/>
  </g>
 </g>
</svg>
