<?xml version="1.0" encoding="UTF-8"?>
<svg id="svg103" width="34.678cm" height="11.853cm" version="1.1" viewBox="9 32 675.72 233.11" xmlns="http://www.w3.org/2000/svg" xmlns:cc="http://creativecommons.org/ns#" xmlns:dc="http://purl.org/dc/elements/1.1/" xmlns:rdf="http://www.w3.org/1999/02/22-rdf-syntax-ns#">
 <metadata id="metadata109">
  <rdf:RDF>
   <cc:Work rdf:about="">
    <dc:format>image/svg+xml</dc:format>
    <dc:type rdf:resource="http://purl.org/dc/dcmitype/StillImage"/>
   </cc:Work>
  </rdf:RDF>
 </metadata>
 <g id="Háttér" transform="translate(-3.1375 -2.3974)">
  <g id="g8">
   <path id="ellipse2" d="m390 150a40 40 0 0 1-40 40 40 40 0 0 1-40-40 40 40 0 0 1 40-40 40 40 0 0 1 40 40z" fill="#fff" stroke="#000" stroke-width="2"/>
  </g>
  <g id="g16">
   <path id="ellipse10" d="m690 150a40 40 0 0 1-40 40 40 40 0 0 1-40-40 40 40 0 0 1 40-40 40 40 0 0 1 40 40z" fill="#fff" stroke="#000" stroke-width="2"/>
  </g>
  <g id="text20" aria-label="garbage">
   <path id="path62" d="m328 150.9q0-1.3229-0.54901-2.0505-0.5424-0.7276-1.528-0.7276-0.97896 0-1.528 0.7276-0.5424 0.72761-0.5424 2.0505 0 1.3163 0.5424 2.0439 0.54901 0.7276 1.528 0.7276 0.98557 0 1.528-0.7276 0.54901-0.72761 0.54901-2.0439zm1.2171 2.8707q0 1.8918-0.84006 2.8112-0.84005 0.92604-2.5731 0.92604-0.64162 0-1.2105-0.0992-0.56885-0.0926-1.1046-0.29104v-1.184q0.53578 0.29104 1.0583 0.42995 0.52255 0.1389 1.065 0.1389 1.1972 0 1.7926-0.62838 0.59531-0.62178 0.59531-1.8852v-0.60192q-0.37703 0.65484-0.96573 0.97896-0.5887 0.32411-1.4089 0.32411-1.3626 0-2.196-1.0385t-0.83344-2.7517q0-1.7198 0.83344-2.7583t2.196-1.0385q0.82021 0 1.4089 0.32411 0.5887 0.32412 0.96573 0.97896v-1.1245h1.2171z" style=""/>
   <path id="path64" d="m335.09 150.97q-1.475 0-2.0439 0.33735-0.56885 0.33734-0.56885 1.1509 0 0.64823 0.42333 1.0319 0.42995 0.37703 1.1642 0.37703 1.012 0 1.6206-0.71438 0.61515-0.72099 0.61515-1.9116v-0.2712zm2.4276-0.50271v4.2267h-1.2171v-1.1245q-0.41672 0.67469-1.0385 0.99881-0.62177 0.3175-1.5214 0.3175-1.1377 0-1.8124-0.63501-0.66807-0.64161-0.66807-1.7132 0-1.2502 0.83344-1.8852 0.84005-0.635 2.5003-0.635h1.7066v-0.11906q0-0.84006-0.55562-1.2965-0.54901-0.46303-1.5478-0.46303-0.635 0-1.2369 0.15214t-1.1576 0.45641v-1.1245q0.66807-0.25797 1.2965-0.38365 0.62839-0.13229 1.2237-0.13229 1.6074 0 2.4011 0.83344t0.79375 2.5268z" style=""/>
   <path id="path67" d="m344.32 148.42q-0.20505-0.11906-0.44979-0.17198-0.23813-0.0595-0.52917-0.0595-1.0319 0-1.5875 0.67469-0.54901 0.66807-0.54901 1.9248v3.9026h-1.2237v-7.4084h1.2237v1.1509q0.38365-0.67469 0.99881-0.9988 0.61515-0.33073 1.4949-0.33073 0.12567 0 0.27781 0.0198 0.15214 0.0132 0.33734 0.0463z" style=""/>
   <path id="path69" d="m350.91 150.99q0-1.3428-0.55562-2.1034-0.54901-0.76729-1.5148-0.76729-0.96573 0-1.5214 0.76729-0.54902 0.76068-0.54902 2.1034 0 1.3428 0.54902 2.1101 0.55562 0.76068 1.5214 0.76068 0.96574 0 1.5148-0.76068 0.55562-0.76729 0.55562-2.1101zm-4.1407-2.5863q0.38365-0.66146 0.96574-0.97896 0.5887-0.32411 1.4023-0.32411 1.3494 0 2.1894 1.0716 0.84667 1.0716 0.84667 2.8178 0 1.7463-0.84667 2.8178-0.84005 1.0716-2.1894 1.0716-0.81359 0-1.4023-0.3175-0.58209-0.32412-0.96574-0.98558v1.1112h-1.2237v-10.292h1.2237z" style=""/>
   <path id="path71" d="m357.56 150.97q-1.4751 0-2.0439 0.33735-0.56886 0.33734-0.56886 1.1509 0 0.64823 0.42333 1.0319 0.42995 0.37703 1.1642 0.37703 1.012 0 1.6206-0.71438 0.61516-0.72099 0.61516-1.9116v-0.2712zm2.4276-0.50271v4.2267h-1.2171v-1.1245q-0.41672 0.67469-1.0385 0.99881-0.62178 0.3175-1.5214 0.3175-1.1377 0-1.8124-0.63501-0.66808-0.64161-0.66808-1.7132 0-1.2502 0.83344-1.8852 0.84006-0.635 2.5003-0.635h1.7066v-0.11906q0-0.84006-0.55563-1.2965-0.54901-0.46303-1.5478-0.46303-0.63501 0-1.2369 0.15214-0.60193 0.15214-1.1576 0.45641v-1.1245q0.66808-0.25797 1.2965-0.38365 0.62839-0.13229 1.2237-0.13229 1.6074 0 2.4011 0.83344 0.79376 0.83344 0.79376 2.5268z" style=""/>
   <path id="path73" d="m367.37 150.9q0-1.3229-0.54901-2.0505-0.5424-0.7276-1.528-0.7276-0.97896 0-1.528 0.7276-0.5424 0.72761-0.5424 2.0505 0 1.3163 0.5424 2.0439 0.54901 0.7276 1.528 0.7276 0.98558 0 1.528-0.7276 0.54901-0.72761 0.54901-2.0439zm1.2171 2.8707q0 1.8918-0.84005 2.8112-0.84006 0.92604-2.5731 0.92604-0.64162 0-1.2105-0.0992-0.56886-0.0926-1.1046-0.29104v-1.184q0.53578 0.29104 1.0583 0.42995 0.52255 0.1389 1.065 0.1389 1.1972 0 1.7926-0.62838 0.59532-0.62178 0.59532-1.8852v-0.60192q-0.37704 0.65484-0.96573 0.97896-0.5887 0.32411-1.4089 0.32411-1.3626 0-2.196-1.0385t-0.83344-2.7517q0-1.7198 0.83344-2.7583t2.196-1.0385q0.82021 0 1.4089 0.32411 0.58869 0.32412 0.96573 0.97896v-1.1245h1.2171z" style=""/>
   <path id="path75" d="m377.43 150.68v0.59531h-5.596q0.0794 1.2568 0.75407 1.9182 0.6813 0.65485 1.8918 0.65485 0.70115 0 1.356-0.17198 0.66146-0.17198 1.3097-0.51594v1.1509q-0.65485 0.27781-1.3428 0.42333-0.68792 0.14553-1.3957 0.14553-1.7727 0-2.8112-1.0319-1.0319-1.0319-1.0319-2.7914 0-1.819 0.97896-2.884 0.98558-1.0716 2.6524-1.0716 1.4949 0 2.3614 0.96573 0.87312 0.95912 0.87312 2.6128zm-1.2171-0.35719q-0.0132-0.99881-0.56224-1.5941-0.5424-0.59532-1.442-0.59532-1.0186 0-1.6338 0.57547-0.60855 0.57547-0.70115 1.6206z" style=""/>
  </g>
  <g id="text24" aria-label="object">
   <path id="path78" d="m633.27 148.13q-0.97897 0-1.5478 0.7673-0.56886 0.76068-0.56886 2.0902 0 1.3295 0.56224 2.0968 0.56886 0.76068 1.5544 0.76068 0.97234 0 1.5412-0.7673 0.56885-0.76729 0.56885-2.0902 0-1.3163-0.56885-2.0836-0.56886-0.77391-1.5412-0.77391zm0-1.0319q1.5875 0 2.4937 1.0319 0.9062 1.0319 0.9062 2.8575 0 1.819-0.9062 2.8575-0.9062 1.0319-2.4937 1.0319-1.5941 0-2.5003-1.0319-0.89959-1.0385-0.89959-2.8575 0-1.8256 0.89959-2.8575 0.9062-1.0319 2.5003-1.0319z" style=""/>
   <path id="path80" d="m644.01 150.99q0-1.3428-0.55563-2.1034-0.54901-0.76729-1.5147-0.76729t-1.5214 0.76729q-0.54901 0.76068-0.54901 2.1034 0 1.3428 0.54901 2.1101 0.55563 0.76068 1.5214 0.76068t1.5147-0.76068q0.55563-0.76729 0.55563-2.1101zm-4.1407-2.5863q0.38365-0.66146 0.96573-0.97896 0.5887-0.32411 1.4023-0.32411 1.3494 0 2.1894 1.0716 0.84667 1.0716 0.84667 2.8178 0 1.7463-0.84667 2.8178-0.84005 1.0716-2.1894 1.0716-0.8136 0-1.4023-0.3175-0.58208-0.32412-0.96573-0.98558v1.1112h-1.2237v-10.292h1.2237z" style=""/>
   <path id="path83" d="m647.29 147.28h1.2171v7.5406q0 1.4155-0.5424 2.0505-0.53578 0.635-1.733 0.635h-0.46303v-1.0319h0.32412q0.69453 0 0.94589-0.32411 0.25135-0.3175 0.25135-1.3295zm0-2.884h1.2171v1.5412h-1.2171z" style=""/>
   <path id="path85" d="m657.39 150.68v0.59531h-5.596q0.0794 1.2568 0.75407 1.9182 0.6813 0.65485 1.8918 0.65485 0.70115 0 1.356-0.17198 0.66146-0.17198 1.3097-0.51594v1.1509q-0.65485 0.27781-1.3428 0.42333-0.68791 0.14553-1.3957 0.14553-1.7727 0-2.8112-1.0319-1.0319-1.0319-1.0319-2.7914 0-1.819 0.97896-2.884 0.98558-1.0716 2.6525-1.0716 1.4949 0 2.3614 0.96573 0.87313 0.95912 0.87313 2.6128zm-1.2171-0.35719q-0.0132-0.99881-0.56224-1.5941-0.5424-0.59532-1.442-0.59532-1.0186 0-1.6338 0.57547-0.60854 0.57547-0.70115 1.6206z" style=""/>
   <path id="path87" d="m664.72 147.57v1.1377q-0.51594-0.28443-1.0385-0.42333-0.51594-0.14553-1.0451-0.14553-1.184 0-1.8389 0.75407-0.65484 0.74745-0.65484 2.1034t0.65484 2.1101q0.65485 0.74745 1.8389 0.74745 0.52917 0 1.0451-0.13891 0.52255-0.14552 1.0385-0.42995v1.1245q-0.50932 0.23813-1.0583 0.35719-0.54239 0.11907-1.1576 0.11907-1.6735 0-2.6591-1.0517-0.98557-1.0517-0.98557-2.8377 0-1.8124 0.99219-2.8509 0.9988-1.0385 2.7318-1.0385 0.56224 0 1.098 0.11906 0.53578 0.11245 1.0385 0.34396z" style=""/>
   <path id="path89" d="m668.04 145.18v2.1034h2.5069v0.94589h-2.5069v4.0217q0 0.9062 0.24474 1.1642 0.25135 0.25797 1.012 0.25797h1.2502v1.0186h-1.2502q-1.4089 0-1.9447-0.52255-0.53578-0.52917-0.53578-1.9182v-4.0217h-0.89297v-0.94589h0.89297v-2.1034z" style=""/>
  </g>
  <g id="text32" aria-label="ctor: new (p) T()">
   <path id="path93" d="m451.67 107.57v1.1377q-0.51594-0.28443-1.0385-0.42333-0.51594-0.14553-1.0451-0.14553-1.184 0-1.8389 0.75407-0.65484 0.74745-0.65484 2.1034t0.65484 2.1101q0.65485 0.74745 1.8389 0.74745 0.52917 0 1.0451-0.13891 0.52255-0.14552 1.0385-0.42995v1.1245q-0.50932 0.23813-1.0583 0.35719-0.54239 0.11907-1.1576 0.11907-1.6735 0-2.6591-1.0517-0.98558-1.0517-0.98558-2.8377 0-1.8124 0.99219-2.8509 0.99881-1.0385 2.7318-1.0385 0.56225 0 1.098 0.11906 0.53578 0.11245 1.0385 0.34396z" style=""/>
   <path id="path95" d="m454.99 105.18v2.1034h2.5069v0.94589h-2.5069v4.0217q0 0.9062 0.24474 1.1642 0.25135 0.25797 1.012 0.25797h1.2502v1.0186h-1.2502q-1.4089 0-1.9447-0.52255-0.53578-0.52917-0.53578-1.9182v-4.0217h-0.89297v-0.94589h0.89297v-2.1034z" style=""/>
   <path id="path97" d="m461.97 108.13q-0.97896 0-1.5478 0.7673-0.56885 0.76068-0.56885 2.0902 0 1.3295 0.56224 2.0968 0.56886 0.76068 1.5544 0.76068 0.97235 0 1.5412-0.7673 0.56886-0.76729 0.56886-2.0902 0-1.3163-0.56886-2.0836-0.56885-0.77391-1.5412-0.77391zm0-1.0319q1.5875 0 2.4937 1.0319 0.9062 1.0319 0.9062 2.8575 0 1.819-0.9062 2.8575-0.9062 1.0319-2.4937 1.0319-1.5941 0-2.5003-1.0319-0.89958-1.0385-0.89958-2.8575 0-1.8256 0.89958-2.8575 0.9062-1.0319 2.5003-1.0319z" style=""/>
   <path id="path99" d="m471.68 108.42q-0.20505-0.11906-0.44979-0.17198-0.23813-0.0595-0.52917-0.0595-1.0319 0-1.5875 0.67469-0.54901 0.66807-0.54901 1.9248v3.9026h-1.2237v-7.4084h1.2237v1.1509q0.38364-0.67469 0.9988-0.9988 0.61516-0.33073 1.4949-0.33073 0.12568 0 0.27781 0.0198 0.15214 0.0132 0.33735 0.0463z" style=""/>
   <path id="path101" d="m473.03 113.01h1.3957v1.6801h-1.3957zm0-5.3248h1.3957v1.6801h-1.3957z" style=""/>
   <path id="path103" d="m487.75 110.22v4.4715h-1.2171v-4.4318q0-1.0517-0.41011-1.5743-0.4101-0.52256-1.2303-0.52256-0.98558 0-1.5544 0.62839-0.56886 0.62839-0.56886 1.7132v4.187h-1.2237v-7.4084h1.2237v1.1509q0.43656-0.66807 1.0253-0.9988 0.59532-0.33073 1.3692-0.33073 1.2766 0 1.9315 0.79375 0.65484 0.78714 0.65484 2.3217z" style=""/>
   <path id="path105" d="m496.51 110.68v0.59531h-5.596q0.0794 1.2568 0.75406 1.9182 0.68131 0.65485 1.8918 0.65485 0.70114 0 1.356-0.17198 0.66146-0.17198 1.3097-0.51594v1.1509q-0.65484 0.27781-1.3428 0.42333-0.68792 0.14553-1.3957 0.14553-1.7727 0-2.8112-1.0319-1.0319-1.0319-1.0319-2.7914 0-1.819 0.97896-2.884 0.98558-1.0716 2.6525-1.0716 1.4949 0 2.3614 0.96573 0.87313 0.95912 0.87313 2.6128zm-1.2171-0.35719q-0.0132-0.99881-0.56224-1.5941-0.5424-0.59532-1.442-0.59532-1.0186 0-1.6338 0.57547-0.60854 0.57547-0.70115 1.6206z" style=""/>
   <path id="path107" d="m497.8 107.28h1.2171l1.5214 5.7812 1.5147-5.7812h1.4354l1.5214 5.7812 1.5147-5.7812h1.2171l-1.9381 7.4084h-1.4354l-1.5941-6.0722-1.6007 6.0722h-1.4354z" style=""/>
   <path id="path109" d="m516.82 104.41q-0.88636 1.5214-1.3163 3.0096-0.42995 1.4883-0.42995 3.0163 0 1.528 0.42995 3.0295 0.43656 1.4949 1.3163 3.0096h-1.0583q-0.99219-1.5544-1.4883-3.0559-0.48948-1.5015-0.48948-2.9832 0-1.4751 0.48948-2.97t1.4883-3.0559z" style=""/>
   <path id="path111" d="m520.36 113.58v3.9291h-1.2237v-10.226h1.2237v1.1245q0.38364-0.66146 0.96573-0.97896 0.5887-0.32411 1.4023-0.32411 1.3494 0 2.1894 1.0716 0.84666 1.0716 0.84666 2.8178 0 1.7463-0.84666 2.8178-0.84006 1.0716-2.1894 1.0716-0.81359 0-1.4023-0.3175-0.58209-0.32412-0.96573-0.98558zm4.1407-2.5863q0-1.3428-0.55563-2.1034-0.54901-0.76729-1.5147-0.76729t-1.5214 0.76729q-0.54901 0.76068-0.54901 2.1034 0 1.3428 0.54901 2.1101 0.55563 0.76068 1.5214 0.76068t1.5147-0.76068q0.55563-0.76729 0.55563-2.1101z" style=""/>
   <path id="path113" d="m527.59 104.41h1.0583q0.99219 1.561 1.4817 3.0559 0.4961 1.4949 0.4961 2.97 0 1.4817-0.4961 2.9832-0.48948 1.5015-1.4817 3.0559h-1.0583q0.87974-1.5147 1.3097-3.0096 0.43656-1.5015 0.43656-3.0295 0-1.528-0.43656-3.0163-0.42995-1.4883-1.3097-3.0096z" style=""/>
   <path id="path115" d="m536.05 104.81h8.3542v1.1245h-3.5057v8.7511h-1.3428v-8.7511h-3.5057z" style=""/>
   <path id="path117" d="m548.57 104.41q-0.88635 1.5214-1.3163 3.0096-0.42995 1.4883-0.42995 3.0163 0 1.528 0.42995 3.0295 0.43656 1.4949 1.3163 3.0096h-1.0583q-0.99219-1.5544-1.4883-3.0559-0.48948-1.5015-0.48948-2.9832 0-1.4751 0.48948-2.97t1.4883-3.0559z" style=""/>
   <path id="path119" d="m550.74 104.41h1.0583q0.99219 1.561 1.4817 3.0559 0.49609 1.4949 0.49609 2.97 0 1.4817-0.49609 2.9832-0.48948 1.5015-1.4817 3.0559h-1.0583q0.87974-1.5147 1.3097-3.0096 0.43657-1.5015 0.43657-3.0295 0-1.528-0.43657-3.0163-0.42995-1.4883-1.3097-3.0096z" style=""/>
  </g>
  <g id="text36" aria-label="dtor: p-&gt;~T()">
   <path id="path122" d="m460.43 188.41v-4.0084h1.2171v10.292h-1.2171v-1.1112q-0.38364 0.66146-0.97234 0.98558-0.58209 0.3175-1.4023 0.3175-1.3428 0-2.1894-1.0716-0.84005-1.0716-0.84005-2.8178 0-1.7462 0.84005-2.8178 0.84667-1.0716 2.1894-1.0716 0.82021 0 1.4023 0.32411 0.5887 0.3175 0.97234 0.97896zm-4.1474 2.5863q0 1.3428 0.54901 2.1101 0.55563 0.76068 1.5214 0.76068t1.5214-0.76068q0.55562-0.76729 0.55562-2.1101 0-1.3428-0.55562-2.1034-0.55563-0.76729-1.5214-0.76729t-1.5214 0.76729q-0.54901 0.76068-0.54901 2.1034z" style=""/>
   <path id="path124" d="m465.36 185.18v2.1034h2.5069v0.94589h-2.5069v4.0217q0 0.9062 0.24474 1.1642 0.25136 0.25797 1.012 0.25797h1.2502v1.0186h-1.2502q-1.4089 0-1.9447-0.52255-0.53578-0.52917-0.53578-1.9182v-4.0217h-0.89297v-0.94589h0.89297v-2.1034z" style=""/>
   <path id="path126" d="m472.34 188.13q-0.97896 0-1.5478 0.7673-0.56886 0.76068-0.56886 2.0902 0 1.3295 0.56224 2.0968 0.56886 0.76068 1.5544 0.76068 0.97235 0 1.5412-0.7673 0.56886-0.76729 0.56886-2.0902 0-1.3163-0.56886-2.0836-0.56885-0.77391-1.5412-0.77391zm0-1.0319q1.5875 0 2.4937 1.0319 0.9062 1.0319 0.9062 2.8575 0 1.819-0.9062 2.8575-0.9062 1.0319-2.4937 1.0319-1.5941 0-2.5003-1.0319-0.89958-1.0385-0.89958-2.8575 0-1.8256 0.89958-2.8575 0.9062-1.0319 2.5003-1.0319z" style=""/>
   <path id="path128" d="m482.05 188.42q-0.20505-0.11906-0.44979-0.17198-0.23812-0.0595-0.52917-0.0595-1.0319 0-1.5875 0.67469-0.54901 0.66807-0.54901 1.9248v3.9026h-1.2237v-7.4084h1.2237v1.1509q0.38364-0.67469 0.9988-0.9988 0.61516-0.33073 1.4949-0.33073 0.12568 0 0.27781 0.0198 0.15214 0.0132 0.33735 0.0463z" style=""/>
   <path id="path130" d="m483.4 193.01h1.3957v1.6801h-1.3957zm0-5.3248h1.3957v1.6801h-1.3957z" style=""/>
   <path id="path132" d="m493.14 193.58v3.9291h-1.2237v-10.226h1.2237v1.1245q0.38365-0.66146 0.96573-0.97896 0.5887-0.32411 1.4023-0.32411 1.3494 0 2.1894 1.0716 0.84667 1.0716 0.84667 2.8178 0 1.7463-0.84667 2.8178-0.84005 1.0716-2.1894 1.0716-0.8136 0-1.4023-0.3175-0.58208-0.32412-0.96573-0.98558zm4.1407-2.5863q0-1.3428-0.55563-2.1034-0.54901-0.76729-1.5147-0.76729t-1.5214 0.76729q-0.54901 0.76068-0.54901 2.1034 0 1.3428 0.54901 2.1101 0.55563 0.76068 1.5214 0.76068t1.5147-0.76068q0.55563-0.76729 0.55563-2.1101z" style=""/>
   <path id="path134" d="m499.94 190.44h3.5653v1.0848h-3.5653z" style=""/>
   <path id="path136" d="m505.61 188.02v-1.2039l8.4799 3.0758v1.098l-8.4799 3.0758v-1.2039l6.813-2.4143z" style=""/>
   <path id="path138" d="m525.44 189.29v1.1774q-0.69453 0.52256-1.2898 0.74745-0.58869 0.2249-1.2303 0.2249-0.72761 0-1.6933-0.39026-0.0728-0.0265-0.10583-0.0397-0.0463-0.0198-0.14552-0.0529-1.0253-0.4101-1.647-0.4101-0.58208 0-1.1509 0.25797-0.56885 0.25135-1.2171 0.80036v-1.1774q0.69453-0.52256 1.2832-0.74745 0.59531-0.23151 1.2369-0.23151 0.7276 0 1.7 0.39687 0.0661 0.0265 0.0992 0.0397 0.0529 0.0198 0.14552 0.0529 1.0253 0.4101 1.647 0.4101 0.56885 0 1.1245-0.25135 0.56224-0.25136 1.2435-0.80699z" style=""/>
   <path id="path140" d="m526.83 184.81h8.3542v1.1245h-3.5057v8.7511h-1.3428v-8.7511h-3.5057z" style=""/>
   <path id="path142" d="m539.35 184.41q-0.88636 1.5214-1.3163 3.0096-0.42995 1.4883-0.42995 3.0163 0 1.528 0.42995 3.0295 0.43656 1.4949 1.3163 3.0096h-1.0583q-0.99219-1.5544-1.4883-3.0559-0.48948-1.5015-0.48948-2.9832 0-1.4751 0.48948-2.97t1.4883-3.0559z" style=""/>
   <path id="path144" d="m541.52 184.41h1.0583q0.99219 1.561 1.4817 3.0559 0.4961 1.4949 0.4961 2.97 0 1.4817-0.4961 2.9832-0.48948 1.5015-1.4817 3.0559h-1.0583q0.87974-1.5147 1.3097-3.0096 0.43656-1.5015 0.43656-3.0295 0-1.528-0.43656-3.0163-0.42995-1.4883-1.3097-3.0096z" style=""/>
  </g>
  <g id="g42" fill="none" stroke="#000" stroke-width="2">
   <path id="path38" d="m389.22 140.19c80-20 141.55-20 217.22-1.084"/>
   <path id="polyline40" d="m597.69 142.08 10.914-2.425-8.489-7.276"/>
  </g>
  <g id="g48" fill="none" stroke="#000" stroke-width="2">
   <path id="path44" d="m610.78 159.81c-80 20-141.55 20-217.22 1.084"/>
   <path id="polyline46" d="m402.31 157.92-10.914 2.425 8.489 7.276"/>
  </g>
  <g id="g56">
   <path id="ellipse50" d="m90 150a40 40 0 0 1-40 40 40 40 0 0 1-40-40 40 40 0 0 1 40-40 40 40 0 0 1 40 40z" fill="#fff" stroke="#000" stroke-width="2"/>
  </g>
  <g id="text60" aria-label="malloc(), operator new()">
   <path id="path151" d="m124.5 108.7q0.45641-0.82021 1.0914-1.2105t1.4949-0.39026q1.1576 0 1.7859 0.81359 0.62839 0.80698 0.62839 2.3019v4.4715h-1.2237v-4.4318q0-1.065-0.37704-1.5809-0.37703-0.51594-1.1509-0.51594-0.94588 0-1.4949 0.62839-0.54901 0.62839-0.54901 1.7132v4.187h-1.2237v-4.4318q0-1.0716-0.37703-1.5809-0.37703-0.51594-1.1642-0.51594-0.93266 0-1.4817 0.635-0.54901 0.62839-0.54901 1.7066v4.187h-1.2237v-7.4084h1.2237v1.1509q0.41672-0.6813 0.9988-1.0054 0.58209-0.32411 1.3824-0.32411 0.80698 0 1.3692 0.4101 0.56885 0.41011 0.84005 1.1906z" style=""/>
   <path id="path153" d="m135.3 110.97q-1.4751 0-2.0439 0.33735-0.56886 0.33734-0.56886 1.1509 0 0.64823 0.42333 1.0319 0.42995 0.37703 1.1642 0.37703 1.012 0 1.6206-0.71438 0.61516-0.72099 0.61516-1.9116v-0.2712zm2.4276-0.50271v4.2267h-1.2171v-1.1245q-0.41672 0.67469-1.0385 0.99881-0.62178 0.3175-1.5214 0.3175-1.1377 0-1.8124-0.63501-0.66808-0.64161-0.66808-1.7132 0-1.2502 0.83344-1.8852 0.84006-0.635 2.5003-0.635h1.7066v-0.11906q0-0.84006-0.55563-1.2965-0.54901-0.46303-1.5478-0.46303-0.63501 0-1.2369 0.15214-0.60193 0.15214-1.1576 0.45641v-1.1245q0.66808-0.25797 1.2965-0.38365 0.62839-0.13229 1.2237-0.13229 1.6074 0 2.4011 0.83344t0.79375 2.5268z" style=""/>
   <path id="path155" d="m140.23 104.4h1.2171v10.292h-1.2171z" style=""/>
   <path id="path157" d="m144 104.4h1.2171v10.292h-1.2171z" style=""/>
   <path id="path159" d="m150.63 108.13q-0.97896 0-1.5478 0.7673-0.56885 0.76068-0.56885 2.0902 0 1.3295 0.56224 2.0968 0.56885 0.76068 1.5544 0.76068 0.97234 0 1.5412-0.7673 0.56885-0.76729 0.56885-2.0902 0-1.3163-0.56885-2.0836-0.56886-0.77391-1.5412-0.77391zm0-1.0319q1.5875 0 2.4937 1.0319 0.9062 1.0319 0.9062 2.8575 0 1.819-0.9062 2.8575-0.9062 1.0319-2.4937 1.0319-1.5941 0-2.5003-1.0319-0.89959-1.0385-0.89959-2.8575 0-1.8256 0.89959-2.8575 0.9062-1.0319 2.5003-1.0319z" style=""/>
   <path id="path161" d="m161.38 107.57v1.1377q-0.51594-0.28443-1.0385-0.42333-0.51594-0.14553-1.0451-0.14553-1.184 0-1.8389 0.75407-0.65484 0.74745-0.65484 2.1034t0.65484 2.1101q0.65485 0.74745 1.8389 0.74745 0.52917 0 1.0451-0.13891 0.52255-0.14552 1.0385-0.42995v1.1245q-0.50932 0.23813-1.0583 0.35719-0.54239 0.11907-1.1576 0.11907-1.6735 0-2.6591-1.0517-0.98557-1.0517-0.98557-2.8377 0-1.8124 0.99219-2.8509 0.9988-1.0385 2.7318-1.0385 0.56225 0 1.098 0.11906 0.53578 0.11245 1.0385 0.34396z" style=""/>
   <path id="path163" d="m166.42 104.41q-0.88636 1.5214-1.3163 3.0096-0.42995 1.4883-0.42995 3.0163 0 1.528 0.42995 3.0295 0.43656 1.4949 1.3163 3.0096h-1.0583q-0.99219-1.5544-1.4883-3.0559-0.48948-1.5015-0.48948-2.9832 0-1.4751 0.48948-2.97t1.4883-3.0559z" style=""/>
   <path id="path165" d="m168.59 104.41h1.0583q0.99219 1.561 1.4817 3.0559 0.4961 1.4949 0.4961 2.97 0 1.4817-0.4961 2.9832-0.48948 1.5015-1.4817 3.0559h-1.0583q0.87975-1.5147 1.3097-3.0096 0.43656-1.5015 0.43656-3.0295 0-1.528-0.43656-3.0163-0.42995-1.4883-1.3097-3.0096z" style=""/>
   <path id="path167" d="m174.38 113.01h1.3957v1.1377l-1.0848 2.1167h-0.85329l0.5424-2.1167z" style=""/>
   <path id="path169" d="m185.55 108.13q-0.97896 0-1.5478 0.7673-0.56885 0.76068-0.56885 2.0902 0 1.3295 0.56224 2.0968 0.56885 0.76068 1.5544 0.76068 0.97234 0 1.5412-0.7673 0.56886-0.76729 0.56886-2.0902 0-1.3163-0.56886-2.0836-0.56886-0.77391-1.5412-0.77391zm0-1.0319q1.5875 0 2.4937 1.0319 0.9062 1.0319 0.9062 2.8575 0 1.819-0.9062 2.8575-0.9062 1.0319-2.4937 1.0319-1.5941 0-2.5003-1.0319-0.89959-1.0385-0.89959-2.8575 0-1.8256 0.89959-2.8575 0.9062-1.0319 2.5003-1.0319z" style=""/>
   <path id="path171" d="m192.15 113.58v3.9291h-1.2237v-10.226h1.2237v1.1245q0.38365-0.66146 0.96573-0.97896 0.5887-0.32411 1.4023-0.32411 1.3494 0 2.1894 1.0716 0.84667 1.0716 0.84667 2.8178 0 1.7463-0.84667 2.8178-0.84005 1.0716-2.1894 1.0716-0.8136 0-1.4023-0.3175-0.58208-0.32412-0.96573-0.98558zm4.1407-2.5863q0-1.3428-0.55563-2.1034-0.54901-0.76729-1.5147-0.76729t-1.5214 0.76729q-0.54901 0.76068-0.54901 2.1034 0 1.3428 0.54901 2.1101 0.55563 0.76068 1.5214 0.76068t1.5147-0.76068q0.55563-0.76729 0.55563-2.1101z" style=""/>
   <path id="path173" d="m205.9 110.68v0.59531h-5.596q0.0794 1.2568 0.75407 1.9182 0.6813 0.65485 1.8918 0.65485 0.70115 0 1.356-0.17198 0.66146-0.17198 1.3097-0.51594v1.1509q-0.65484 0.27781-1.3428 0.42333-0.68792 0.14553-1.3957 0.14553-1.7727 0-2.8112-1.0319-1.0319-1.0319-1.0319-2.7914 0-1.819 0.97896-2.884 0.98557-1.0716 2.6524-1.0716 1.4949 0 2.3614 0.96573 0.87313 0.95912 0.87313 2.6128zm-1.2171-0.35719q-0.0132-0.99881-0.56225-1.5941-0.54239-0.59532-1.442-0.59532-1.0186 0-1.6338 0.57547-0.60855 0.57547-0.70115 1.6206z" style=""/>
   <path id="path175" d="m212.19 108.42q-0.20505-0.11906-0.44979-0.17198-0.23813-0.0595-0.52917-0.0595-1.0319 0-1.5875 0.67469-0.54901 0.66807-0.54901 1.9248v3.9026h-1.2237v-7.4084h1.2237v1.1509q0.38365-0.67469 0.99881-0.9988 0.61516-0.33073 1.4949-0.33073 0.12567 0 0.27781 0.0198 0.15214 0.0132 0.33734 0.0463z" style=""/>
   <path id="path177" d="m216.84 110.97q-1.475 0-2.0439 0.33735-0.56886 0.33734-0.56886 1.1509 0 0.64823 0.42334 1.0319 0.42995 0.37703 1.1642 0.37703 1.012 0 1.6206-0.71438 0.61515-0.72099 0.61515-1.9116v-0.2712zm2.4276-0.50271v4.2267h-1.2171v-1.1245q-0.41672 0.67469-1.0385 0.99881-0.62177 0.3175-1.5214 0.3175-1.1377 0-1.8124-0.63501-0.66807-0.64161-0.66807-1.7132 0-1.2502 0.83344-1.8852 0.84005-0.635 2.5003-0.635h1.7066v-0.11906q0-0.84006-0.55562-1.2965-0.54901-0.46303-1.5478-0.46303-0.635 0-1.2369 0.15214t-1.1576 0.45641v-1.1245q0.66807-0.25797 1.2965-0.38365 0.62838-0.13229 1.2237-0.13229 1.6074 0 2.4011 0.83344t0.79375 2.5268z" style=""/>
   <path id="path179" d="m222.98 105.18v2.1034h2.5069v0.94589h-2.5069v4.0217q0 0.9062 0.24474 1.1642 0.25136 0.25797 1.012 0.25797h1.2502v1.0186h-1.2502q-1.4089 0-1.9447-0.52255-0.53578-0.52917-0.53578-1.9182v-4.0217h-0.89297v-0.94589h0.89297v-2.1034z" style=""/>
   <path id="path181" d="m229.95 108.13q-0.97896 0-1.5478 0.7673-0.56886 0.76068-0.56886 2.0902 0 1.3295 0.56224 2.0968 0.56886 0.76068 1.5544 0.76068 0.97235 0 1.5412-0.7673 0.56886-0.76729 0.56886-2.0902 0-1.3163-0.56886-2.0836-0.56885-0.77391-1.5412-0.77391zm0-1.0319q1.5875 0 2.4937 1.0319 0.9062 1.0319 0.9062 2.8575 0 1.819-0.9062 2.8575-0.9062 1.0319-2.4937 1.0319-1.5941 0-2.5003-1.0319-0.89958-1.0385-0.89958-2.8575 0-1.8256 0.89958-2.8575 0.9062-1.0319 2.5003-1.0319z" style=""/>
   <path id="path183" d="m239.66 108.42q-0.20506-0.11906-0.4498-0.17198-0.23812-0.0595-0.52917-0.0595-1.0319 0-1.5875 0.67469-0.54901 0.66807-0.54901 1.9248v3.9026h-1.2237v-7.4084h1.2237v1.1509q0.38365-0.67469 0.9988-0.9988 0.61516-0.33073 1.4949-0.33073 0.12568 0 0.27782 0.0198 0.15213 0.0132 0.33734 0.0463z" style=""/>
   <path id="path185" d="m251.41 110.22v4.4715h-1.2171v-4.4318q0-1.0517-0.4101-1.5743-0.41011-0.52256-1.2303-0.52256-0.98557 0-1.5544 0.62839t-0.56886 1.7132v4.187h-1.2237v-7.4084h1.2237v1.1509q0.43657-0.66807 1.0253-0.9988 0.59531-0.33073 1.3692-0.33073 1.2766 0 1.9315 0.79375 0.65485 0.78714 0.65485 2.3217z" style=""/>
   <path id="path187" d="m260.17 110.68v0.59531h-5.596q0.0794 1.2568 0.75406 1.9182 0.68131 0.65485 1.8918 0.65485 0.70114 0 1.356-0.17198 0.66146-0.17198 1.3097-0.51594v1.1509q-0.65484 0.27781-1.3428 0.42333-0.68792 0.14553-1.3957 0.14553-1.7727 0-2.8112-1.0319-1.0319-1.0319-1.0319-2.7914 0-1.819 0.97896-2.884 0.98558-1.0716 2.6525-1.0716 1.4949 0 2.3614 0.96573 0.87313 0.95912 0.87313 2.6128zm-1.2171-0.35719q-0.0132-0.99881-0.56224-1.5941-0.5424-0.59532-1.442-0.59532-1.0186 0-1.6338 0.57547-0.60854 0.57547-0.70115 1.6206z" style=""/>
   <path id="path189" d="m261.46 107.28h1.2171l1.5214 5.7812 1.5147-5.7812h1.4354l1.5214 5.7812 1.5147-5.7812h1.2171l-1.9381 7.4084h-1.4354l-1.5941-6.0722-1.6007 6.0722h-1.4354z" style=""/>
   <path id="path191" d="m276.17 104.41q-0.88635 1.5214-1.3163 3.0096-0.42995 1.4883-0.42995 3.0163 0 1.528 0.42995 3.0295 0.43656 1.4949 1.3163 3.0096h-1.0583q-0.99219-1.5544-1.4883-3.0559-0.48948-1.5015-0.48948-2.9832 0-1.4751 0.48948-2.97t1.4883-3.0559z" style=""/>
   <path id="path193" d="m278.34 104.41h1.0583q0.99219 1.561 1.4817 3.0559 0.49609 1.4949 0.49609 2.97 0 1.4817-0.49609 2.9832-0.48948 1.5015-1.4817 3.0559h-1.0583q0.87974-1.5147 1.3097-3.0096 0.43657-1.5015 0.43657-3.0295 0-1.528-0.43657-3.0163-0.42995-1.4883-1.3097-3.0096z" style=""/>
  </g>
  <g id="text64" aria-label="free(), operator delete()">
   <path id="path196" d="m124.17 184.4v1.012h-1.1642q-0.65484 0-0.91281 0.26458-0.25136 0.26459-0.25136 0.95251v0.65484h2.0042v0.94589h-2.0042v6.4625h-1.2237v-6.4625h-1.1642v-0.94589h1.1642v-0.51594q0-1.2369 0.57547-1.7992 0.57547-0.56885 1.8256-0.56885z" style=""/>
   <path id="path198" d="m129.49 188.42q-0.20505-0.11906-0.44979-0.17198-0.23813-0.0595-0.52917-0.0595-1.0319 0-1.5875 0.67469-0.54901 0.66807-0.54901 1.9248v3.9026h-1.2237v-7.4084h1.2237v1.1509q0.38364-0.67469 0.9988-0.9988 0.61516-0.33073 1.4949-0.33073 0.12568 0 0.27781 0.0198 0.15214 0.0132 0.33735 0.0463z" style=""/>
   <path id="path200" d="m136.8 190.68v0.59531h-5.596q0.0794 1.2568 0.75406 1.9182 0.68131 0.65485 1.8918 0.65485 0.70115 0 1.356-0.17198 0.66146-0.17198 1.3097-0.51594v1.1509q-0.65484 0.27781-1.3428 0.42333-0.68792 0.14553-1.3957 0.14553-1.7727 0-2.8112-1.0319-1.0319-1.0319-1.0319-2.7914 0-1.819 0.97896-2.884 0.98557-1.0716 2.6524-1.0716 1.4949 0 2.3614 0.96573 0.87313 0.95912 0.87313 2.6128zm-1.2171-0.35719q-0.0132-0.99881-0.56224-1.5941-0.54239-0.59532-1.442-0.59532-1.0186 0-1.6338 0.57547-0.60854 0.57547-0.70114 1.6206z" style=""/>
   <path id="path202" d="m145.14 190.68v0.59531h-5.596q0.0794 1.2568 0.75407 1.9182 0.6813 0.65485 1.8918 0.65485 0.70115 0 1.356-0.17198 0.66146-0.17198 1.3097-0.51594v1.1509q-0.65485 0.27781-1.3428 0.42333-0.68791 0.14553-1.3957 0.14553-1.7727 0-2.8112-1.0319-1.0319-1.0319-1.0319-2.7914 0-1.819 0.97896-2.884 0.98558-1.0716 2.6525-1.0716 1.4949 0 2.3614 0.96573 0.87313 0.95912 0.87313 2.6128zm-1.2171-0.35719q-0.0132-0.99881-0.56224-1.5941-0.5424-0.59532-1.442-0.59532-1.0186 0-1.6338 0.57547-0.60854 0.57547-0.70115 1.6206z" style=""/>
   <path id="path204" d="m150.06 184.41q-0.88636 1.5214-1.3163 3.0096-0.42995 1.4883-0.42995 3.0163 0 1.528 0.42995 3.0295 0.43657 1.4949 1.3163 3.0096h-1.0583q-0.99219-1.5544-1.4883-3.0559-0.48948-1.5015-0.48948-2.9832 0-1.4751 0.48948-2.97t1.4883-3.0559z" style=""/>
   <path id="path206" d="m152.23 184.41h1.0583q0.99219 1.561 1.4817 3.0559 0.4961 1.4949 0.4961 2.97 0 1.4817-0.4961 2.9832-0.48948 1.5015-1.4817 3.0559h-1.0583q0.87974-1.5147 1.3097-3.0096 0.43656-1.5015 0.43656-3.0295 0-1.528-0.43656-3.0163-0.42995-1.4883-1.3097-3.0096z" style=""/>
   <path id="path208" d="m158.01 193.01h1.3957v1.1377l-1.0848 2.1167h-0.85329l0.5424-2.1167z" style=""/>
   <path id="path210" d="m169.19 188.13q-0.97896 0-1.5478 0.7673-0.56885 0.76068-0.56885 2.0902 0 1.3295 0.56224 2.0968 0.56885 0.76068 1.5544 0.76068 0.97234 0 1.5412-0.7673 0.56886-0.76729 0.56886-2.0902 0-1.3163-0.56886-2.0836-0.56886-0.77391-1.5412-0.77391zm0-1.0319q1.5875 0 2.4937 1.0319 0.9062 1.0319 0.9062 2.8575 0 1.819-0.9062 2.8575-0.9062 1.0319-2.4937 1.0319-1.5941 0-2.5003-1.0319-0.89959-1.0385-0.89959-2.8575 0-1.8256 0.89959-2.8575 0.9062-1.0319 2.5003-1.0319z" style=""/>
   <path id="path212" d="m175.78 193.58v3.9291h-1.2237v-10.226h1.2237v1.1245q0.38365-0.66146 0.96574-0.97896 0.5887-0.32411 1.4023-0.32411 1.3494 0 2.1894 1.0716 0.84667 1.0716 0.84667 2.8178 0 1.7463-0.84667 2.8178-0.84005 1.0716-2.1894 1.0716-0.81359 0-1.4023-0.3175-0.58209-0.32412-0.96574-0.98558zm4.1407-2.5863q0-1.3428-0.55562-2.1034-0.54901-0.76729-1.5148-0.76729-0.96573 0-1.5214 0.76729-0.54902 0.76068-0.54902 2.1034 0 1.3428 0.54902 2.1101 0.55562 0.76068 1.5214 0.76068 0.96574 0 1.5148-0.76068 0.55562-0.76729 0.55562-2.1101z" style=""/>
   <path id="path214" d="m189.54 190.68v0.59531h-5.596q0.0794 1.2568 0.75407 1.9182 0.6813 0.65485 1.8918 0.65485 0.70115 0 1.356-0.17198 0.66146-0.17198 1.3097-0.51594v1.1509q-0.65484 0.27781-1.3428 0.42333-0.68792 0.14553-1.3957 0.14553-1.7727 0-2.8112-1.0319-1.0319-1.0319-1.0319-2.7914 0-1.819 0.97896-2.884 0.98557-1.0716 2.6524-1.0716 1.4949 0 2.3614 0.96573 0.87313 0.95912 0.87313 2.6128zm-1.2171-0.35719q-0.0132-0.99881-0.56225-1.5941-0.54239-0.59532-1.442-0.59532-1.0186 0-1.6338 0.57547-0.60855 0.57547-0.70115 1.6206z" style=""/>
   <path id="path216" d="m195.83 188.42q-0.20505-0.11906-0.44979-0.17198-0.23813-0.0595-0.52917-0.0595-1.0319 0-1.5875 0.67469-0.54901 0.66807-0.54901 1.9248v3.9026h-1.2237v-7.4084h1.2237v1.1509q0.38364-0.67469 0.9988-0.9988 0.61516-0.33073 1.4949-0.33073 0.12568 0 0.27781 0.0198 0.15214 0.0132 0.33735 0.0463z" style=""/>
   <path id="path218" d="m200.47 190.97q-1.4751 0-2.0439 0.33735-0.56885 0.33734-0.56885 1.1509 0 0.64823 0.42333 1.0319 0.42995 0.37703 1.1642 0.37703 1.012 0 1.6206-0.71438 0.61516-0.72099 0.61516-1.9116v-0.2712zm2.4276-0.50271v4.2267h-1.2171v-1.1245q-0.41672 0.67469-1.0385 0.99881-0.62177 0.3175-1.5214 0.3175-1.1377 0-1.8124-0.63501-0.66808-0.64161-0.66808-1.7132 0-1.2502 0.83344-1.8852 0.84006-0.635 2.5003-0.635h1.7066v-0.11906q0-0.84006-0.55563-1.2965-0.54901-0.46303-1.5478-0.46303-0.635 0-1.2369 0.15214-0.60192 0.15214-1.1576 0.45641v-1.1245q0.66807-0.25797 1.2965-0.38365 0.62839-0.13229 1.2237-0.13229 1.6074 0 2.4011 0.83344t0.79375 2.5268z" style=""/>
   <path id="path220" d="m206.61 185.18v2.1034h2.5069v0.94589h-2.5069v4.0217q0 0.9062 0.24474 1.1642 0.25136 0.25797 1.012 0.25797h1.2502v1.0186h-1.2502q-1.4089 0-1.9447-0.52255-0.53579-0.52917-0.53579-1.9182v-4.0217h-0.89297v-0.94589h0.89297v-2.1034z" style=""/>
   <path id="path222" d="m213.59 188.13q-0.97896 0-1.5478 0.7673-0.56886 0.76068-0.56886 2.0902 0 1.3295 0.56225 2.0968 0.56885 0.76068 1.5544 0.76068 0.97234 0 1.5412-0.7673 0.56885-0.76729 0.56885-2.0902 0-1.3163-0.56885-2.0836-0.56886-0.77391-1.5412-0.77391zm0-1.0319q1.5875 0 2.4937 1.0319 0.9062 1.0319 0.9062 2.8575 0 1.819-0.9062 2.8575-0.9062 1.0319-2.4937 1.0319-1.5941 0-2.5003-1.0319-0.89959-1.0385-0.89959-2.8575 0-1.8256 0.89959-2.8575 0.9062-1.0319 2.5003-1.0319z" style=""/>
   <path id="path224" d="m223.3 188.42q-0.20505-0.11906-0.44979-0.17198-0.23813-0.0595-0.52917-0.0595-1.0319 0-1.5875 0.67469-0.54901 0.66807-0.54901 1.9248v3.9026h-1.2237v-7.4084h1.2237v1.1509q0.38364-0.67469 0.9988-0.9988 0.61516-0.33073 1.4949-0.33073 0.12568 0 0.27781 0.0198 0.15214 0.0132 0.33735 0.0463z" style=""/>
   <path id="path226" d="m233.76 188.41v-4.0084h1.2171v10.292h-1.2171v-1.1112q-0.38365 0.66146-0.97235 0.98558-0.58208 0.3175-1.4023 0.3175-1.3428 0-2.1894-1.0716-0.84006-1.0716-0.84006-2.8178 0-1.7462 0.84006-2.8178 0.84666-1.0716 2.1894-1.0716 0.82021 0 1.4023 0.32411 0.5887 0.3175 0.97235 0.97896zm-4.1474 2.5863q0 1.3428 0.54901 2.1101 0.55562 0.76068 1.5214 0.76068 0.96574 0 1.5214-0.76068 0.55563-0.76729 0.55563-2.1101 0-1.3428-0.55563-2.1034-0.55562-0.76729-1.5214-0.76729-0.96573 0-1.5214 0.76729-0.54901 0.76068-0.54901 2.1034z" style=""/>
   <path id="path228" d="m243.82 190.68v0.59531h-5.596q0.0794 1.2568 0.75406 1.9182 0.68131 0.65485 1.8918 0.65485 0.70115 0 1.356-0.17198 0.66146-0.17198 1.3097-0.51594v1.1509q-0.65484 0.27781-1.3428 0.42333-0.68792 0.14553-1.3957 0.14553-1.7727 0-2.8112-1.0319-1.0319-1.0319-1.0319-2.7914 0-1.819 0.97896-2.884 0.98557-1.0716 2.6524-1.0716 1.4949 0 2.3614 0.96573 0.87313 0.95912 0.87313 2.6128zm-1.2171-0.35719q-0.0132-0.99881-0.56225-1.5941-0.54239-0.59532-1.442-0.59532-1.0186 0-1.6338 0.57547-0.60855 0.57547-0.70115 1.6206z" style=""/>
   <path id="path230" d="m245.82 184.4h1.2171v10.292h-1.2171z" style=""/>
   <path id="path232" d="m255.92 190.68v0.59531h-5.596q0.0794 1.2568 0.75406 1.9182 0.68131 0.65485 1.8918 0.65485 0.70115 0 1.356-0.17198 0.66146-0.17198 1.3097-0.51594v1.1509q-0.65484 0.27781-1.3428 0.42333-0.68792 0.14553-1.3957 0.14553-1.7727 0-2.8112-1.0319-1.0319-1.0319-1.0319-2.7914 0-1.819 0.97896-2.884 0.98557-1.0716 2.6524-1.0716 1.4949 0 2.3614 0.96573 0.87313 0.95912 0.87313 2.6128zm-1.2171-0.35719q-0.0132-0.99881-0.56224-1.5941-0.54239-0.59532-1.442-0.59532-1.0186 0-1.6338 0.57547-0.60854 0.57547-0.70114 1.6206z" style=""/>
   <path id="path234" d="m259.12 185.18v2.1034h2.5069v0.94589h-2.5069v4.0217q0 0.9062 0.24474 1.1642 0.25135 0.25797 1.012 0.25797h1.2502v1.0186h-1.2502q-1.4089 0-1.9447-0.52255-0.53578-0.52917-0.53578-1.9182v-4.0217h-0.89297v-0.94589h0.89297v-2.1034z" style=""/>
   <path id="path236" d="m269.56 190.68v0.59531h-5.596q0.0794 1.2568 0.75406 1.9182 0.68131 0.65485 1.8918 0.65485 0.70115 0 1.356-0.17198 0.66146-0.17198 1.3097-0.51594v1.1509q-0.65484 0.27781-1.3428 0.42333-0.68792 0.14553-1.3957 0.14553-1.7727 0-2.8112-1.0319-1.0319-1.0319-1.0319-2.7914 0-1.819 0.97896-2.884 0.98557-1.0716 2.6524-1.0716 1.4949 0 2.3614 0.96573 0.87313 0.95912 0.87313 2.6128zm-1.2171-0.35719q-0.0132-0.99881-0.56224-1.5941-0.54239-0.59532-1.442-0.59532-1.0186 0-1.6338 0.57547-0.60854 0.57547-0.70114 1.6206z" style=""/>
   <path id="path238" d="m274.48 184.41q-0.88635 1.5214-1.3163 3.0096-0.42995 1.4883-0.42995 3.0163 0 1.528 0.42995 3.0295 0.43656 1.4949 1.3163 3.0096h-1.0583q-0.99219-1.5544-1.4883-3.0559-0.48948-1.5015-0.48948-2.9832 0-1.4751 0.48948-2.97t1.4883-3.0559z" style=""/>
   <path id="path240" d="m276.65 184.41h1.0583q0.99219 1.561 1.4817 3.0559 0.49609 1.4949 0.49609 2.97 0 1.4817-0.49609 2.9832-0.48948 1.5015-1.4817 3.0559h-1.0583q0.87974-1.5147 1.3097-3.0096 0.43657-1.5015 0.43657-3.0295 0-1.528-0.43657-3.0163-0.42995-1.4883-1.3097-3.0096z" style=""/>
  </g>
  <g id="g70" fill="none" stroke="#000" stroke-width="2">
   <path id="path66" d="m89.223 140.19c80-20 141.55-20 217.22-1.084"/>
   <path id="polyline68" d="m297.69 142.08 10.914-2.425-8.489-7.276"/>
  </g>
  <g id="g76" fill="none" stroke="#000" stroke-width="2">
   <path id="path72" d="m310.78 159.81c-80 20-141.55 20-217.22 1.084"/>
   <path id="polyline74" d="m102.31 157.92-10.914 2.425 8.4887 7.276"/>
  </g>
  <g id="text80" aria-label="nothing">
   <path id="path245" d="m31.575 150.22v4.4715h-1.2171v-4.4318q0-1.0517-0.4101-1.5743-0.4101-0.52256-1.2303-0.52256-0.98558 0-1.5544 0.62839-0.56886 0.62839-0.56886 1.7132v4.187h-1.2237v-7.4084h1.2237v1.1509q0.43656-0.66807 1.0253-0.9988 0.59531-0.33073 1.3692-0.33073 1.2766 0 1.9315 0.79375 0.65484 0.78714 0.65484 2.3217z" style=""/>
   <path id="path247" d="m36.873 148.13q-0.97896 0-1.5478 0.7673-0.56886 0.76068-0.56886 2.0902 0 1.3295 0.56224 2.0968 0.56886 0.76068 1.5544 0.76068 0.97235 0 1.5412-0.7673 0.56886-0.76729 0.56886-2.0902 0-1.3163-0.56886-2.0836-0.56886-0.77391-1.5412-0.77391zm0-1.0319q1.5875 0 2.4937 1.0319 0.9062 1.0319 0.9062 2.8575 0 1.819-0.9062 2.8575-0.9062 1.0319-2.4937 1.0319-1.5941 0-2.5003-1.0319-0.89959-1.0385-0.89959-2.8575 0-1.8256 0.89959-2.8575 0.9062-1.0319 2.5003-1.0319z" style=""/>
   <path id="path249" d="m43.495 145.18v2.1034h2.5069v0.94589h-2.5069v4.0217q0 0.9062 0.24474 1.1642 0.25136 0.25797 1.012 0.25797h1.2502v1.0186h-1.2502q-1.4089 0-1.9447-0.52255-0.53578-0.52917-0.53578-1.9182v-4.0217h-0.89297v-0.94589h0.89297v-2.1034z" style=""/>
   <path id="path251" d="m53.76 150.22v4.4715h-1.2171v-4.4318q0-1.0517-0.4101-1.5743-0.4101-0.52256-1.2303-0.52256-0.98558 0-1.5544 0.62839-0.56886 0.62839-0.56886 1.7132v4.187h-1.2237v-10.292h1.2237v4.0349q0.43656-0.66807 1.0253-0.9988 0.59531-0.33073 1.3692-0.33073 1.2766 0 1.9315 0.79375 0.65484 0.78714 0.65484 2.3217z" style=""/>
   <path id="path253" d="m56.188 147.28h1.2171v7.4084h-1.2171zm0-2.884h1.2171v1.5412h-1.2171z" style=""/>
   <path id="path255" d="m66.11 150.22v4.4715h-1.2171v-4.4318q0-1.0517-0.4101-1.5743-0.41011-0.52256-1.2303-0.52256-0.98558 0-1.5544 0.62839-0.56886 0.62839-0.56886 1.7132v4.187h-1.2237v-7.4084h1.2237v1.1509q0.43656-0.66807 1.0253-0.9988 0.59531-0.33073 1.3692-0.33073 1.2766 0 1.9315 0.79375 0.65484 0.78714 0.65484 2.3217z" style=""/>
   <path id="path257" d="m73.412 150.9q0-1.3229-0.54901-2.0505-0.5424-0.7276-1.528-0.7276-0.97896 0-1.528 0.7276-0.5424 0.72761-0.5424 2.0505 0 1.3163 0.5424 2.0439 0.54901 0.7276 1.528 0.7276 0.98558 0 1.528-0.7276 0.54901-0.72761 0.54901-2.0439zm1.2171 2.8707q0 1.8918-0.84006 2.8112-0.84005 0.92604-2.5731 0.92604-0.64162 0-1.2105-0.0992-0.56886-0.0926-1.1046-0.29104v-1.184q0.53578 0.29104 1.0583 0.42995 0.52255 0.1389 1.065 0.1389 1.1972 0 1.7926-0.62838 0.59531-0.62178 0.59531-1.8852v-0.60192q-0.37703 0.65484-0.96573 0.97896-0.5887 0.32411-1.4089 0.32411-1.3626 0-2.196-1.0385-0.83344-1.0385-0.83344-2.7517 0-1.7198 0.83344-2.7583 0.83344-1.0385 2.196-1.0385 0.82021 0 1.4089 0.32411 0.5887 0.32412 0.96573 0.97896v-1.1245h1.2171z" style=""/>
  </g>
  <g id="g86" fill="none" stroke="#000" stroke-width="2">
   <path id="path82" d="m78.588 121.41c90-90 452.82-90 539.66-3.162"/>
   <path id="polyline84" d="m609.22 116.3 10.607 3.536-3.536-10.607"/>
  </g>
  <g id="text90" aria-label="new T, new T[]">
   <path id="path261" d="m307.26 40.218v4.4715h-1.2171v-4.4318q0-1.0517-0.41011-1.5743-0.4101-0.52255-1.2303-0.52255-0.98558 0-1.5544 0.62839-0.56886 0.62839-0.56886 1.7132v4.187h-1.2237v-7.4084h1.2237v1.1509q0.43656-0.66807 1.0253-0.9988 0.59532-0.33073 1.3692-0.33073 1.2766 0 1.9315 0.79375 0.65484 0.78714 0.65484 2.3217z" style=""/>
   <path id="path263" d="m316.03 40.681v0.59531h-5.596q0.0794 1.2568 0.75406 1.9182 0.6813 0.65484 1.8918 0.65484 0.70114 0 1.356-0.17198 0.66146-0.17198 1.3097-0.51594v1.1509q-0.65485 0.27781-1.3428 0.42333-0.68792 0.14552-1.3957 0.14552-1.7727 0-2.8112-1.0319-1.0319-1.0319-1.0319-2.7914 0-1.819 0.97896-2.884 0.98558-1.0716 2.6525-1.0716 1.4949 0 2.3614 0.96573 0.87313 0.95912 0.87313 2.6128zm-1.2171-0.35719q-0.0132-0.9988-0.56224-1.5941-0.5424-0.59531-1.442-0.59531-1.0186 0-1.6338 0.57547-0.60854 0.57547-0.70115 1.6206z" style=""/>
   <path id="path265" d="m317.32 37.281h1.2171l1.5214 5.7812 1.5147-5.7812h1.4354l1.5214 5.7812 1.5147-5.7812h1.2171l-1.9381 7.4084h-1.4354l-1.5941-6.0722-1.6007 6.0722h-1.4354z" style=""/>
   <path id="path267" d="m332.09 34.814h8.3542v1.1245h-3.5057v8.7511h-1.3428v-8.7511h-3.5057z" style=""/>
   <path id="path269" d="m342 43.01h1.3957v1.1377l-1.0848 2.1167h-0.85328l0.54239-2.1167z" style=""/>
   <path id="path271" d="m356.46 40.218v4.4715h-1.2171v-4.4318q0-1.0517-0.4101-1.5743-0.41011-0.52255-1.2303-0.52255-0.98557 0-1.5544 0.62839-0.56885 0.62839-0.56885 1.7132v4.187h-1.2237v-7.4084h1.2237v1.1509q0.43656-0.66807 1.0253-0.9988 0.59531-0.33073 1.3692-0.33073 1.2766 0 1.9315 0.79375 0.65485 0.78714 0.65485 2.3217z" style=""/>
   <path id="path273" d="m365.22 40.681v0.59531h-5.596q0.0794 1.2568 0.75407 1.9182 0.6813 0.65484 1.8918 0.65484 0.70115 0 1.356-0.17198 0.66146-0.17198 1.3097-0.51594v1.1509q-0.65485 0.27781-1.3428 0.42333t-1.3957 0.14552q-1.7727 0-2.8112-1.0319-1.0319-1.0319-1.0319-2.7914 0-1.819 0.97896-2.884 0.98558-1.0716 2.6524-1.0716 1.4949 0 2.3614 0.96573 0.87312 0.95912 0.87312 2.6128zm-1.2171-0.35719q-0.0132-0.9988-0.56224-1.5941-0.5424-0.59531-1.442-0.59531-1.0186 0-1.6338 0.57547-0.60855 0.57547-0.70115 1.6206z" style=""/>
   <path id="path275" d="m366.51 37.281h1.2171l1.5214 5.7812 1.5147-5.7812h1.4354l1.5214 5.7812 1.5147-5.7812h1.2171l-1.9381 7.4084h-1.4354l-1.5941-6.0722-1.6007 6.0722h-1.4354z" style=""/>
   <path id="path277" d="m381.29 34.814h8.3542v1.1245h-3.5057v8.7511h-1.3428v-8.7511h-3.5057z" style=""/>
   <path id="path279" d="m390.77 34.397h2.8046v0.94589h-1.5875v10.186h1.5875v0.94589h-2.8046z" style=""/>
   <path id="path281" d="m399.01 34.397v12.078h-2.8046v-0.94589h1.5809v-10.186h-1.5809v-0.94589z" style=""/>
  </g>
  <g id="g96" fill="none" stroke="#000" stroke-width="2">
   <path id="path92" d="m81.75 181.75c86.838 86.838 449.66 86.838 539.66-3.162"/>
   <path id="polyline94" d="m90.776 183.7-10.607-3.536 3.5356 10.607"/>
  </g>
  <g id="text100" aria-label="delete p, delete[] p">
   <path id="path285" d="m290.98 258.41v-4.0084h1.2171v10.292h-1.2171v-1.1112q-0.38365 0.66146-0.97235 0.98558-0.58208 0.3175-1.4023 0.3175-1.3428 0-2.1894-1.0716-0.84006-1.0716-0.84006-2.8178 0-1.7462 0.84006-2.8178 0.84666-1.0716 2.1894-1.0716 0.82021 0 1.4023 0.32411 0.5887 0.3175 0.97235 0.97896zm-4.1474 2.5863q0 1.3428 0.54901 2.1101 0.55562 0.76068 1.5214 0.76068 0.96573 0 1.5214-0.76068 0.55563-0.76729 0.55563-2.1101 0-1.3428-0.55563-2.1034-0.55562-0.76729-1.5214-0.76729-0.96574 0-1.5214 0.76729-0.54901 0.76068-0.54901 2.1034z" style=""/>
   <path id="path287" d="m301.04 260.68v0.59531h-5.596q0.0794 1.2568 0.75407 1.9182 0.6813 0.65485 1.8918 0.65485 0.70115 0 1.356-0.17198 0.66146-0.17198 1.3097-0.51594v1.1509q-0.65485 0.27781-1.3428 0.42333-0.68791 0.14553-1.3957 0.14553-1.7727 0-2.8112-1.0319-1.0319-1.0319-1.0319-2.7914 0-1.819 0.97896-2.884 0.98558-1.0716 2.6525-1.0716 1.4949 0 2.3614 0.96573 0.87313 0.95912 0.87313 2.6128zm-1.2171-0.35719q-0.0132-0.99881-0.56224-1.5941-0.5424-0.59532-1.442-0.59532-1.0186 0-1.6338 0.57547-0.60854 0.57547-0.70115 1.6206z" style=""/>
   <path id="path289" d="m303.04 254.4h1.2171v10.292h-1.2171z" style=""/>
   <path id="path291" d="m313.14 260.68v0.59531h-5.596q0.0794 1.2568 0.75406 1.9182 0.68131 0.65485 1.8918 0.65485 0.70114 0 1.356-0.17198 0.66146-0.17198 1.3097-0.51594v1.1509q-0.65484 0.27781-1.3428 0.42333-0.68792 0.14553-1.3957 0.14553-1.7727 0-2.8112-1.0319-1.0319-1.0319-1.0319-2.7914 0-1.819 0.97897-2.884 0.98557-1.0716 2.6524-1.0716 1.4949 0 2.3614 0.96573 0.87313 0.95912 0.87313 2.6128zm-1.2171-0.35719q-0.0132-0.99881-0.56224-1.5941-0.5424-0.59532-1.442-0.59532-1.0186 0-1.6338 0.57547-0.60854 0.57547-0.70114 1.6206z" style=""/>
   <path id="path293" d="m316.34 255.18v2.1034h2.5069v0.94589h-2.5069v4.0217q0 0.9062 0.24474 1.1642 0.25136 0.25797 1.012 0.25797h1.2502v1.0186h-1.2502q-1.4089 0-1.9447-0.52255-0.53579-0.52917-0.53579-1.9182v-4.0217h-0.89297v-0.94589h0.89297v-2.1034z" style=""/>
   <path id="path295" d="m326.78 260.68v0.59531h-5.596q0.0794 1.2568 0.75406 1.9182 0.68131 0.65485 1.8918 0.65485 0.70114 0 1.356-0.17198 0.66146-0.17198 1.3097-0.51594v1.1509q-0.65484 0.27781-1.3428 0.42333-0.68792 0.14553-1.3957 0.14553-1.7727 0-2.8112-1.0319-1.0319-1.0319-1.0319-2.7914 0-1.819 0.97897-2.884 0.98557-1.0716 2.6524-1.0716 1.4949 0 2.3614 0.96573 0.87313 0.95912 0.87313 2.6128zm-1.2171-0.35719q-0.0132-0.99881-0.56224-1.5941-0.5424-0.59532-1.442-0.59532-1.0186 0-1.6338 0.57547-0.60854 0.57547-0.70114 1.6206z" style=""/>
   <path id="path297" d="m334.26 263.58v3.9291h-1.2237v-10.226h1.2237v1.1245q0.38365-0.66146 0.96573-0.97896 0.5887-0.32411 1.4023-0.32411 1.3494 0 2.1894 1.0716 0.84667 1.0716 0.84667 2.8178 0 1.7463-0.84667 2.8178-0.84006 1.0716-2.1894 1.0716-0.8136 0-1.4023-0.3175-0.58208-0.32412-0.96573-0.98558zm4.1407-2.5863q0-1.3428-0.55563-2.1034-0.54901-0.76729-1.5147-0.76729t-1.5214 0.76729q-0.54901 0.76068-0.54901 2.1034 0 1.3428 0.54901 2.1101 0.55563 0.76068 1.5214 0.76068t1.5147-0.76068q0.55563-0.76729 0.55563-2.1101z" style=""/>
   <path id="path299" d="m342 263.01h1.3957v1.1377l-1.0848 2.1167h-0.85328l0.54239-2.1167z" style=""/>
   <path id="path301" d="m355.17 258.41v-4.0084h1.2171v10.292h-1.2171v-1.1112q-0.38365 0.66146-0.97235 0.98558-0.58208 0.3175-1.4023 0.3175-1.3428 0-2.1894-1.0716-0.84005-1.0716-0.84005-2.8178 0-1.7462 0.84005-2.8178 0.84667-1.0716 2.1894-1.0716 0.82021 0 1.4023 0.32411 0.5887 0.3175 0.97235 0.97896zm-4.1474 2.5863q0 1.3428 0.54901 2.1101 0.55563 0.76068 1.5214 0.76068t1.5214-0.76068q0.55563-0.76729 0.55563-2.1101 0-1.3428-0.55563-2.1034-0.55563-0.76729-1.5214-0.76729t-1.5214 0.76729q-0.54901 0.76068-0.54901 2.1034z" style=""/>
   <path id="path303" d="m365.23 260.68v0.59531h-5.596q0.0794 1.2568 0.75406 1.9182 0.68131 0.65485 1.8918 0.65485 0.70115 0 1.356-0.17198 0.66146-0.17198 1.3097-0.51594v1.1509q-0.65484 0.27781-1.3428 0.42333-0.68792 0.14553-1.3957 0.14553-1.7727 0-2.8112-1.0319-1.0319-1.0319-1.0319-2.7914 0-1.819 0.97896-2.884 0.98557-1.0716 2.6524-1.0716 1.4949 0 2.3614 0.96573 0.87313 0.95912 0.87313 2.6128zm-1.2171-0.35719q-0.0132-0.99881-0.56224-1.5941-0.5424-0.59532-1.442-0.59532-1.0186 0-1.6338 0.57547-0.60854 0.57547-0.70114 1.6206z" style=""/>
   <path id="path305" d="m367.23 254.4h1.2171v10.292h-1.2171z" style=""/>
   <path id="path307" d="m377.33 260.68v0.59531h-5.596q0.0794 1.2568 0.75407 1.9182 0.6813 0.65485 1.8918 0.65485 0.70115 0 1.356-0.17198 0.66146-0.17198 1.3097-0.51594v1.1509q-0.65485 0.27781-1.3428 0.42333-0.68791 0.14553-1.3957 0.14553-1.7727 0-2.8112-1.0319-1.0319-1.0319-1.0319-2.7914 0-1.819 0.97896-2.884 0.98558-1.0716 2.6525-1.0716 1.4949 0 2.3614 0.96573 0.87313 0.95912 0.87313 2.6128zm-1.2171-0.35719q-0.0132-0.99881-0.56224-1.5941-0.5424-0.59532-1.442-0.59532-1.0186 0-1.6338 0.57547-0.60854 0.57547-0.70115 1.6206z" style=""/>
   <path id="path309" d="m380.53 255.18v2.1034h2.5069v0.94589h-2.5069v4.0217q0 0.9062 0.24474 1.1642 0.25136 0.25797 1.012 0.25797h1.2502v1.0186h-1.2502q-1.4089 0-1.9447-0.52255-0.53578-0.52917-0.53578-1.9182v-4.0217h-0.89297v-0.94589h0.89297v-2.1034z" style=""/>
   <path id="path311" d="m390.98 260.68v0.59531h-5.596q0.0794 1.2568 0.75407 1.9182 0.6813 0.65485 1.8918 0.65485 0.70115 0 1.356-0.17198 0.66146-0.17198 1.3097-0.51594v1.1509q-0.65485 0.27781-1.3428 0.42333-0.68791 0.14553-1.3957 0.14553-1.7727 0-2.8112-1.0319-1.0319-1.0319-1.0319-2.7914 0-1.819 0.97896-2.884 0.98558-1.0716 2.6525-1.0716 1.4949 0 2.3614 0.96573 0.87313 0.95912 0.87313 2.6128zm-1.2171-0.35719q-0.0132-0.99881-0.56224-1.5941-0.5424-0.59532-1.442-0.59532-1.0186 0-1.6338 0.57547-0.60854 0.57547-0.70115 1.6206z" style=""/>
   <path id="path313" d="m392.86 254.4h2.8046v0.94588h-1.5875v10.186h1.5875v0.94588h-2.8046z" style=""/>
   <path id="path315" d="m401.1 254.4v12.078h-2.8046v-0.94588h1.5809v-10.186h-1.5809v-0.94588z" style=""/>
   <path id="path317" d="m409.03 263.58v3.9291h-1.2237v-10.226h1.2237v1.1245q0.38365-0.66146 0.96573-0.97896 0.5887-0.32411 1.4023-0.32411 1.3494 0 2.1894 1.0716 0.84667 1.0716 0.84667 2.8178 0 1.7463-0.84667 2.8178-0.84005 1.0716-2.1894 1.0716-0.8136 0-1.4023-0.3175-0.58208-0.32412-0.96573-0.98558zm4.1407-2.5863q0-1.3428-0.55562-2.1034-0.54902-0.76729-1.5148-0.76729t-1.5214 0.76729q-0.54901 0.76068-0.54901 2.1034 0 1.3428 0.54901 2.1101 0.55563 0.76068 1.5214 0.76068t1.5148-0.76068q0.55562-0.76729 0.55562-2.1101z" style=""/>
  </g>
 </g>
</svg>
