<?xml version="1.0" encoding="UTF-8" standalone="no"?>
<svg
   xmlns:dc="http://purl.org/dc/elements/1.1/"
   xmlns:cc="http://creativecommons.org/ns#"
   xmlns:rdf="http://www.w3.org/1999/02/22-rdf-syntax-ns#"
   xmlns:svg="http://www.w3.org/2000/svg"
   xmlns="http://www.w3.org/2000/svg"
   xmlns:sodipodi="http://sodipodi.sourceforge.net/DTD/sodipodi-0.dtd"
   xmlns:inkscape="http://www.inkscape.org/namespaces/inkscape"
   width="9.0311108cm"
   height="3.7497597cm"
   viewBox="299 99 171.5911 66.558234"
   id="svg2"
   version="1.1"
   inkscape:version="0.91 r13725"
   sodipodi:docname="4-memcs.svg">
  <metadata
     id="metadata116">
    <rdf:RDF>
      <cc:Work
         rdf:about="">
        <dc:format>image/svg+xml</dc:format>
        <dc:type
           rdf:resource="http://purl.org/dc/dcmitype/StillImage" />
        <dc:title></dc:title>
      </cc:Work>
    </rdf:RDF>
  </metadata>
  <defs
     id="defs114" />
  <sodipodi:namedview
     pagecolor="#ffffff"
     bordercolor="#666666"
     borderopacity="1"
     objecttolerance="10"
     gridtolerance="10"
     guidetolerance="10"
     inkscape:pageopacity="0"
     inkscape:pageshadow="2"
     inkscape:window-width="1366"
     inkscape:window-height="719"
     id="namedview112"
     showgrid="false"
     fit-margin-top="0"
     fit-margin-left="0"
     fit-margin-right="0"
     fit-margin-bottom="0"
     inkscape:zoom="0.64597531"
     inkscape:cx="318.89758"
     inkscape:cy="127.45383"
     inkscape:window-x="0"
     inkscape:window-y="26"
     inkscape:window-maximized="1"
     inkscape:current-layer="svg2" />
  <g
     id="g4"
     transform="matrix(0.50172837,0,0,0.50172837,148.98322,46.985292)">
    <rect
       style="fill:#ffffff"
       x="300"
       y="100"
       width="40"
       height="40"
       id="rect6" />
    <rect
       style="fill:none;fill-opacity:0;stroke:#000000;stroke-width:2"
       x="300"
       y="100"
       width="40"
       height="40"
       id="rect8" />
  </g>
  <g
     id="g10"
     transform="matrix(0.50172837,0,0,0.50172837,148.98322,46.985292)">
    <rect
       style="fill:#ffffff"
       x="420"
       y="100"
       width="40"
       height="40"
       id="rect12" />
    <rect
       style="fill:none;fill-opacity:0;stroke:#000000;stroke-width:2"
       x="420"
       y="100"
       width="40"
       height="40"
       id="rect14" />
  </g>
  <g
     id="g16"
     transform="matrix(0.50172837,0,0,0.50172837,148.98322,46.985292)">
    <rect
       style="fill:#ffffff"
       x="460"
       y="100"
       width="40"
       height="40"
       id="rect18" />
    <rect
       style="fill:none;fill-opacity:0;stroke:#000000;stroke-width:2"
       x="460"
       y="100"
       width="40"
       height="40"
       id="rect20" />
  </g>
  <g
     id="g22"
     transform="matrix(0.50172837,0,0,0.50172837,148.98322,46.985292)">
    <rect
       style="fill:#ffffff"
       x="500"
       y="100"
       width="40"
       height="40"
       id="rect24" />
    <rect
       style="fill:none;fill-opacity:0;stroke:#000000;stroke-width:2"
       x="500"
       y="100"
       width="40"
       height="40"
       id="rect26" />
  </g>
  <g
     id="g28"
     transform="matrix(0.50172837,0,0,0.50172837,148.98322,46.985292)">
    <rect
       style="fill:#ffffff"
       x="320"
       y="200"
       width="40"
       height="40"
       id="rect30" />
    <rect
       style="fill:none;fill-opacity:0;stroke:#000000;stroke-width:2"
       x="320"
       y="200"
       width="40"
       height="40"
       id="rect32" />
  </g>
  <g
     id="g34"
     transform="matrix(0.50172837,0,0,0.50172837,148.98322,46.985292)">
    <rect
       style="fill:#ffffff"
       x="360"
       y="200"
       width="40"
       height="40"
       id="rect36" />
    <rect
       style="fill:none;fill-opacity:0;stroke:#000000;stroke-width:2"
       x="360"
       y="200"
       width="40"
       height="40"
       id="rect38" />
  </g>
  <text
     font-size="15.8044"
     style="font-style:normal;font-weight:normal;font-size:7.92951584px;font-family:sans-serif;text-anchor:middle;fill:#000000"
     x="319.57086"
     y="160.09996"
     id="text40">
    <tspan
       x="319.57086"
       y="160.09996"
       id="tspan42">11</tspan>
  </text>
  <text
     font-size="15.8044"
     style="font-style:normal;font-weight:normal;font-size:7.92951584px;font-family:sans-serif;text-anchor:middle;fill:#000000"
     x="339.63998"
     y="160.09996"
     id="text44">
    <tspan
       x="339.63998"
       y="160.09996"
       id="tspan46">14</tspan>
  </text>
  <g
     id="g48"
     transform="matrix(0.50172837,0,0,0.50172837,148.98322,46.985292)">
    <rect
       style="fill:#ffffff"
       x="440"
       y="200"
       width="40"
       height="40"
       id="rect50" />
    <rect
       style="fill:none;fill-opacity:0;stroke:#000000;stroke-width:2"
       x="440"
       y="200"
       width="40"
       height="40"
       id="rect52" />
  </g>
  <g
     id="g54"
     transform="matrix(0.50172837,0,0,0.50172837,148.98322,46.985292)">
    <rect
       style="fill:#ffffff"
       x="480"
       y="200"
       width="40"
       height="40"
       id="rect56" />
    <rect
       style="fill:none;fill-opacity:0;stroke:#000000;stroke-width:2"
       x="480"
       y="200"
       width="40"
       height="40"
       id="rect58" />
  </g>
  <text
     font-size="15.8044"
     style="font-style:normal;font-weight:normal;font-size:7.92951584px;font-family:sans-serif;text-anchor:middle;fill:#000000"
     x="379.77826"
     y="160.09996"
     id="text60">
    <tspan
       x="379.77826"
       y="160.09996"
       id="tspan62">12</tspan>
  </text>
  <text
     font-size="15.8044"
     style="font-style:normal;font-weight:normal;font-size:7.92951584px;font-family:sans-serif;text-anchor:middle;fill:#000000"
     x="399.84741"
     y="160.09996"
     id="text64">
    <tspan
       x="399.84741"
       y="160.09996"
       id="tspan66">15</tspan>
  </text>
  <g
     id="g68"
     transform="matrix(0.50172837,0,0,0.50172837,148.98322,46.985292)">
    <rect
       style="fill:#ffffff"
       x="560"
       y="200"
       width="40"
       height="40"
       id="rect70" />
    <rect
       style="fill:none;fill-opacity:0;stroke:#000000;stroke-width:2"
       x="560"
       y="200"
       width="40"
       height="40"
       id="rect72" />
  </g>
  <g
     id="g74"
     transform="matrix(0.50172837,0,0,0.50172837,148.98322,46.985292)">
    <rect
       style="fill:#ffffff"
       x="600"
       y="200"
       width="40"
       height="40"
       id="rect76" />
    <rect
       style="fill:none;fill-opacity:0;stroke:#000000;stroke-width:2"
       x="600"
       y="200"
       width="40"
       height="40"
       id="rect78" />
  </g>
  <text
     font-size="15.8044"
     style="font-style:normal;font-weight:normal;font-size:7.92951584px;font-family:sans-serif;text-anchor:middle;fill:#000000"
     x="439.98566"
     y="160.09996"
     id="text80">
    <tspan
       x="439.98566"
       y="160.09996"
       id="tspan82">13</tspan>
  </text>
  <text
     font-size="15.8044"
     style="font-style:normal;font-weight:normal;font-size:7.92951584px;font-family:sans-serif;text-anchor:middle;fill:#000000"
     x="460.05481"
     y="160.09996"
     id="text84">
    <tspan
       x="460.05481"
       y="160.09996"
       id="tspan86">83</tspan>
  </text>
  <g
     id="g88"
     transform="matrix(0.50172837,0,0,0.50172837,148.98322,46.985292)">
    <line
       style="fill:none;fill-opacity:0;stroke:#000000;stroke-width:2"
       x1="341.00201"
       y1="120"
       x2="415.52802"
       y2="120"
       id="line90" />
    <polyline
       style="fill:none;fill-opacity:0;stroke:#000000;stroke-width:2"
       points="407.764,125 417.764,120 407.764,115 "
       id="polyline92" />
  </g>
  <g
     id="g94"
     transform="matrix(0.50172837,0,0,0.50172837,148.98322,46.985292)">
    <line
       style="fill:none;fill-opacity:0;stroke:#000000;stroke-width:2"
       x1="440"
       y1="140"
       x2="343.83499"
       y2="197.69901"
       id="line96" />
    <polyline
       style="fill:none;fill-opacity:0;stroke:#000000;stroke-width:2"
       points="347.92,189.417 341.917,198.85 353.065,197.992 "
       id="polyline98" />
  </g>
  <g
     id="g100"
     transform="matrix(0.50172837,0,0,0.50172837,148.98322,46.985292)">
    <line
       style="fill:none;fill-opacity:0;stroke:#000000;stroke-width:2"
       x1="480"
       y1="140"
       x2="461.414"
       y2="195.757"
       id="line102" />
    <polyline
       style="fill:none;fill-opacity:0;stroke:#000000;stroke-width:2"
       points="459.126,186.811 460.707,197.879 468.613,189.973 "
       id="polyline104" />
  </g>
  <g
     id="g106"
     transform="matrix(0.50172837,0,0,0.50172837,148.98322,46.985292)">
    <line
       style="fill:none;fill-opacity:0;stroke:#000000;stroke-width:2"
       x1="520"
       y1="140"
       x2="576.83801"
       y2="196.838"
       id="line108" />
    <polyline
       style="fill:none;fill-opacity:0;stroke:#000000;stroke-width:2"
       points="567.812,194.883 578.419,198.419 574.883,187.812 "
       id="polyline110" />
  </g>
</svg>
