<?xml version="1.0" encoding="UTF-8"?>
<svg id="svg107" width="11.385cm" height="13.949cm" version="1.1" viewBox="388 178 211.56 272" xmlns="http://www.w3.org/2000/svg" xmlns:cc="http://creativecommons.org/ns#" xmlns:dc="http://purl.org/dc/elements/1.1/" xmlns:rdf="http://www.w3.org/1999/02/22-rdf-syntax-ns#">
 <metadata id="metadata111">
  <rdf:RDF>
   <cc:Work rdf:about="">
    <dc:format>image/svg+xml</dc:format>
    <dc:type rdf:resource="http://purl.org/dc/dcmitype/StillImage"/>
   </cc:Work>
  </rdf:RDF>
 </metadata>
 <g id="Háttér" transform="translate(-6.2179 -1)">
  <path id="ellipse4" d="m520 200a20 20 0 0 1-20 20 20 20 0 0 1-20-20 20 20 0 0 1 20-20 20 20 0 0 1 20 20z" fill="#bfbfbf" stroke="#000" stroke-width="2"/>
  <path id="ellipse6" d="m470 270a20 20 0 0 1-20 20 20 20 0 0 1-20-20 20 20 0 0 1 20-20 20 20 0 0 1 20 20z" fill="#bfbfbf" stroke="#000" stroke-width="2"/>
  <path id="ellipse8" d="m570 270a20 20 0 0 1-20 20 20 20 0 0 1-20-20 20 20 0 0 1 20-20 20 20 0 0 1 20 20z" fill="#bfbfbf" stroke="#000" stroke-width="2"/>
  <path id="ellipse10" d="m610 350a20 20 0 0 1-20 20 20 20 0 0 1-20-20 20 20 0 0 1 20-20 20 20 0 0 1 20 20z" fill="#fff" stroke="#000" stroke-width="2"/>
  <g id="g16" fill="none" stroke="#000" stroke-width="2">
   <path id="line12" d="m487.84 217.02-23.084 32.318"/>
   <path id="polyline14" d="m465.2 240.12-1.744 11.044 9.881-5.231"/>
  </g>
  <g id="g22" fill="none" stroke="#000" stroke-width="2">
   <path id="line18" d="m512.16 217.02 23.084 32.318"/>
   <path id="polyline20" d="m526.66 245.93 9.881 5.231-1.744-11.044"/>
  </g>
  <g id="g28" fill="none" stroke="#000" stroke-width="2">
   <path id="line24" d="m559.39 288.77 19.23 38.46"/>
   <path id="polyline26" d="m570.67 322.52 8.944 6.708v-11.18"/>
  </g>
  <g id="text32" aria-label="t">
   <path id="path69" d="m466.22 217.32v2.8046h3.3426v1.2612h-3.3426v5.3622q0 1.2083 0.32632 1.5522 0.33514 0.34396 1.3494 0.34396h1.6669v1.3582h-1.6669q-1.8785 0-2.5929-0.69674-0.71437-0.70555-0.71437-2.5576v-5.3622h-1.1906v-1.2612h1.1906v-2.8046z" style=""/>
  </g>
  <path id="ellipse34" d="m430 430a20 20 0 0 1-20 20 20 20 0 0 1-20-20 20 20 0 0 1 20-20 20 20 0 0 1 20 20z" fill="#fff" stroke="#000" stroke-width="2"/>
  <path id="ellipse36" d="m510 430a20 20 0 0 1-20 20 20 20 0 0 1-20-20 20 20 0 0 1 20-20 20 20 0 0 1 20 20z" fill="#fff" stroke="#000" stroke-width="2"/>
  <g id="g42" fill="none" stroke="#000" stroke-width="2">
   <path id="line38" d="m440.62 368.77-19.232 38.46"/>
   <path id="polyline40" d="m420.38 398.05v11.18l8.945-6.708"/>
  </g>
  <g id="g48" fill="none" stroke="#000" stroke-width="2">
   <path id="line44" d="m459.38 368.77 19.224 38.447"/>
   <path id="polyline46" d="m470.66 402.51 8.944 6.708v-11.18"/>
  </g>
  <g id="text52" aria-label="a">
   <path id="path78" d="m415.11 385.03q-1.9667 0-2.7252 0.44979t-0.75847 1.5346q0 0.86431 0.56444 1.3758 0.57326 0.50271 1.5522 0.50271 1.3494 0 2.1608-0.9525 0.82021-0.96132 0.82021-2.5488v-0.3616zm3.2367-0.67028v5.6356h-1.6228v-1.4993q-0.55562 0.89958-1.3846 1.3317-0.82903 0.42333-2.0285 0.42333-1.5169 0-2.4165-0.84666-0.89076-0.85549-0.89076-2.2842 0-1.6669 1.1112-2.5135 1.1201-0.84667 3.3338-0.84667h2.2754v-0.15875q0-1.1201-0.74083-1.7286-0.73202-0.61736-2.0638-0.61736-0.84667 0-1.6492 0.20285-0.80257 0.20285-1.5434 0.60854v-1.4993q0.89076-0.34396 1.7286-0.51153 0.83785-0.17639 1.6316-0.17639 2.1431 0 3.2014 1.1112 1.0583 1.1112 1.0583 3.369z" style=""/>
  </g>
  <g id="text56" aria-label="n">
   <path id="path81" d="m489.91 384.04v5.9619h-1.6228v-5.909q0-1.4023-0.54681-2.099-0.5468-0.69673-1.6404-0.69673-1.3141 0-2.0726 0.83784-0.75847 0.83785-0.75847 2.2842v5.5827h-1.6316v-9.8778h1.6316v1.5346q0.58208-0.89077 1.367-1.3317 0.79375-0.44097 1.8256-0.44097 1.7022 0 2.5753 1.0583 0.87312 1.0495 0.87312 3.0956z" style=""/>
  </g>
  <path id="ellipse58" d="m470 350a20 20 0 0 1-20 20 20 20 0 0 1-20-20 20 20 0 0 1 20-20 20 20 0 0 1 20 20z" fill="#bfbfbf" stroke="#000" stroke-width="2"/>
  <g id="g64" fill="none" stroke="#000" stroke-width="2">
   <path id="line60" d="m450 290.98v33.574"/>
   <path id="polyline62" d="m445 316.79 5 10 5-10"/>
  </g>
  <g id="text68" aria-label="e">
   <path id="path87" d="m439.04 304.66v0.79375h-7.4612q0.10583 1.6757 1.0054 2.5576 0.9084 0.87312 2.5224 0.87312 0.93486 0 1.808-0.2293 0.88194-0.22931 1.7462-0.68792v1.5346q-0.87313 0.37042-1.7904 0.56445-0.91722 0.19402-1.8609 0.19402-2.3636 0-3.7483-1.3758-1.3758-1.3758-1.3758-3.7218 0-2.4253 1.3053-3.8453 1.3141-1.4288 3.5366-1.4288 1.9932 0 3.1485 1.2876 1.1642 1.2788 1.1642 3.4837zm-1.6228-0.47625q-0.0176-1.3317-0.74966-2.1255-0.72319-0.79375-1.9226-0.79375-1.3582 0-2.1784 0.76729-0.81139 0.76729-0.93486 2.1608z" style=""/>
  </g>
  <g id="text72" aria-label="i">
   <path id="path90" d="m531.7 220.12h1.6228v9.8778h-1.6228zm0-3.8453h1.6228v2.0549h-1.6228z" style=""/>
  </g>
  <g id="text76" aria-label="n">
   <path id="path93" d="m589.91 304.04v5.9619h-1.6228v-5.909q0-1.4023-0.54681-2.099-0.5468-0.69673-1.6404-0.69673-1.3141 0-2.0726 0.83784-0.75847 0.83785-0.75847 2.2842v5.5827h-1.6316v-9.8778h1.6316v1.5346q0.58208-0.89077 1.367-1.3317 0.79375-0.44097 1.8256-0.44097 1.7022 0 2.5753 1.0583 0.87312 1.0495 0.87312 3.0956z" style=""/>
  </g>
  <path id="ellipse78" d="m610 429.02a20 20 0 0 1-20 20 20 20 0 0 1-20-20 20 20 0 0 1 20-20 20 20 0 0 1 20 20z" fill="#fff" stroke="#000" stroke-width="2"/>
  <g id="g84" fill="none" stroke="#000" stroke-width="2">
   <path id="line80" d="m590 370v34.552"/>
   <path id="polyline82" d="m585 396.79 5 10 5-10"/>
  </g>
  <g id="text88" aria-label="n">
   <path id="path99" d="m609.91 384.04v5.9619h-1.6228v-5.909q0-1.4023-0.54681-2.099-0.5468-0.69673-1.6404-0.69673-1.3141 0-2.0726 0.83784-0.75847 0.83785-0.75847 2.2842v5.5827h-1.6316v-9.8778h1.6316v1.5346q0.58208-0.89077 1.367-1.3317 0.79375-0.44097 1.8256-0.44097 1.7022 0 2.5753 1.0583 0.87312 1.0495 0.87312 3.0956z" style=""/>
  </g>
  <g id="text92" aria-label="×">
   <path id="path102" d="m453.61 347.55-2.8562 2.8688 2.8562 2.8562-0.74375 0.75625-2.8688-2.8688-2.8688 2.8688-0.7375-0.75625 2.85-2.8562-2.85-2.8688 0.7375-0.75625 2.8688 2.8688 2.8688-2.8688z" style=""/>
  </g>
  <g id="text96" aria-label="×">
   <path id="path105" d="m453.61 267.55-2.8562 2.8688 2.8562 2.8562-0.74375 0.75625-2.8688-2.8688-2.8688 2.8688-0.7375-0.75625 2.85-2.8562-2.85-2.8688 0.7375-0.75625 2.8688 2.8688 2.8688-2.8688z" style=""/>
  </g>
  <g id="text100" aria-label="×">
   <path id="path108" d="m503.61 197.55-2.8562 2.8688 2.8562 2.8562-0.74375 0.75625-2.8688-2.8688-2.8688 2.8688-0.7375-0.75625 2.85-2.8562-2.85-2.8688 0.7375-0.75625 2.8688 2.8688 2.8688-2.8688z" style=""/>
  </g>
  <g id="text104" aria-label="×">
   <path id="path111" d="m553.61 267.55-2.8562 2.8688 2.8562 2.8562-0.74375 0.75625-2.8688-2.8688-2.8688 2.8688-0.7375-0.75625 2.85-2.8562-2.85-2.8688 0.7375-0.75625 2.8688 2.8688 2.8688-2.8688z" style=""/>
  </g>
 </g>
</svg>
